<?xml version="1.0" standalone="no"?>
<!DOCTYPE svg PUBLIC "-//W3C//DTD SVG 20010904//EN"
 "http://www.w3.org/TR/2001/REC-SVG-20010904/DTD/svg10.dtd">
<svg version="1.0" xmlns="http://www.w3.org/2000/svg"
 width="1144.000000pt" height="715.000000pt" viewBox="0 0 1144.000000 715.000000"
 preserveAspectRatio="xMidYMid meet">

<g transform="translate(0.000000,715.000000) scale(0.100000,-0.100000)"
fill="#000000" stroke="none">
<path d="M7530 7139 c-63 -11 -175 -63 -238 -110 -41 -32 -46 -33 -154 -36
-134 -4 -171 -13 -235 -56 -59 -41 -125 -143 -156 -242 -42 -134 -21 -332 39
-372 32 -20 113 -12 153 16 29 21 43 47 61 119 9 34 15 42 33 42 13 0 32 -6
43 -14 17 -13 19 -26 17 -119 -3 -100 -2 -105 23 -130 14 -14 51 -40 82 -58
32 -17 80 -53 109 -80 46 -44 57 -49 97 -49 36 0 52 6 80 30 18 17 37 43 41
58 9 38 22 51 61 58 54 10 139 -22 188 -72 46 -46 65 -97 86 -226 17 -110 31
-141 71 -162 36 -20 37 -20 145 1 60 12 130 27 157 34 44 12 47 14 47 46 0 19
15 89 33 156 30 114 32 133 31 277 -1 240 -48 501 -109 606 -53 90 -146 158
-307 225 -137 56 -285 78 -398 58z"/>
<path d="M5550 4631 c-19 -4 -75 -27 -124 -52 l-90 -44 -150 -6 c-129 -5 -157
-9 -195 -28 -88 -45 -114 -91 -171 -293 -46 -164 -48 -185 -19 -222 30 -38 67
-35 247 24 86 27 125 26 140 -2 6 -13 13 -57 15 -98 6 -89 20 -123 56 -140 14
-7 33 -15 41 -19 8 -4 25 -27 37 -52 33 -68 73 -101 131 -107 63 -6 86 8 117
68 13 27 33 55 44 62 18 13 18 16 -19 77 -50 83 -66 140 -51 182 17 50 13 83
-19 144 -35 67 -35 67 48 154 l58 61 68 0 c68 0 168 -27 216 -58 14 -9 66 -37
117 -62 l91 -46 -19 48 c-32 81 -96 202 -122 230 -31 34 -66 50 -150 73 -37 9
-94 34 -126 55 -78 51 -115 62 -171 51z"/>
<path d="M5886 3492 c4 -66 12 -120 23 -142 20 -43 75 -73 119 -64 34 7 86 53
109 98 l16 30 -49 44 c-102 91 -134 114 -179 127 l-46 14 7 -107z"/>
<path d="M5313 3565 c-13 -9 -25 -31 -28 -53 -11 -61 -15 -72 -48 -109 -33
-37 -104 -93 -118 -93 -5 0 -18 18 -29 40 -29 56 -85 117 -116 124 -18 5 -32
2 -45 -10 -17 -16 -17 -19 17 -85 19 -39 41 -69 49 -69 9 0 25 -6 38 -12 12
-7 23 -14 25 -14 2 -1 -6 -21 -17 -46 -14 -28 -35 -52 -62 -68 -51 -31 -66
-61 -75 -141 -6 -65 10 -158 39 -218 34 -71 140 -93 226 -45 67 37 178 188
201 275 20 75 51 298 57 417 l6 122 -49 0 c-28 0 -59 -7 -71 -15z"/>
<path d="M5885 3094 c-244 -70 -448 -148 -499 -190 -44 -37 -66 -82 -66 -135
0 -32 -10 -68 -30 -111 -16 -34 -30 -79 -30 -98 0 -33 -9 -44 -129 -149 -146
-127 -289 -271 -373 -376 -93 -115 -348 -524 -374 -598 -8 -23 -36 -73 -62
-111 l-47 -69 3 -233 c2 -129 0 -234 -5 -234 -4 0 -36 17 -70 38 -194 118
-253 151 -295 167 l-48 18 49 91 c26 50 87 164 135 254 48 90 85 169 83 176
-3 7 -242 131 -532 276 -428 215 -528 261 -536 249 -5 -7 -59 -111 -120 -229
-60 -118 -119 -230 -131 -248 -11 -18 -18 -38 -15 -46 3 -7 126 -75 274 -151
147 -76 270 -139 272 -141 2 -2 -9 -13 -25 -25 -59 -44 -201 -198 -289 -311
-105 -137 -208 -298 -407 -645 l-146 -252 1817 -3 c999 -2 1956 -2 2126 0
l310 3 153 647 c84 356 153 662 153 680 -1 46 -28 99 -63 125 -16 12 -104 51
-195 88 -154 61 -164 67 -132 73 19 3 59 22 89 41 43 27 65 35 102 35 50 0 62
9 64 50 1 14 5 42 9 62 7 35 5 39 -70 115 -118 120 -194 251 -360 623 -95 214
-173 364 -212 411 -32 38 -78 67 -165 103 -38 16 -68 32 -68 37 0 13 -88 9
-145 -7z m-2308 -1340 l444 -226 -112 -216 c-61 -120 -113 -219 -115 -221 -1
-2 -47 19 -101 47 -54 27 -254 129 -446 227 l-347 177 112 219 c62 120 115
219 117 219 2 0 203 -102 448 -226z m-587 26 c0 -5 -4 -10 -9 -10 -6 0 -13 5
-16 10 -3 6 1 10 9 10 9 0 16 -4 16 -10z m978 -497 c2 -8 -5 -13 -17 -13 -21
0 -35 13 -24 24 10 10 36 3 41 -11z m-218 -261 c-58 -6 -102 14 -170 78 l-65
60 135 -67 c126 -63 133 -68 100 -71z"/>
<path d="M8270 2329 c-24 -5 -117 -33 -205 -63 -99 -34 -234 -70 -355 -95
-323 -67 -488 -128 -529 -195 -15 -24 -22 -53 -23 -99 -2 -58 2 -73 42 -153
l45 -89 -3 -140 c-3 -118 1 -161 23 -275 15 -74 30 -202 35 -285 7 -116 15
-168 35 -230 18 -55 29 -119 35 -205 5 -69 20 -181 34 -250 14 -69 26 -150 26
-181 l0 -56 613 -7 c338 -4 655 -4 706 0 l93 7 -8 86 c-12 142 -7 428 9 520
11 61 12 92 5 114 -12 33 11 183 62 397 85 359 55 569 -120 855 -60 98 -125
233 -144 298 l-17 57 -157 -1 c-86 -1 -177 -5 -202 -10z"/>
</g>
</svg>
