<?xml version="1.0" encoding="UTF-8"?>
<svg version="1.1" xmlns="http://www.w3.org/2000/svg" width="1144" height="715">
<path d="M0 0 C14.83592005 11.02701506 19.09244681 27.24725254 21.75585938 44.81420898 C22.37658304 49.14742587 22.93499004 53.48685771 23.46484375 57.83203125 C23.6659375 59.44464844 23.6659375 59.44464844 23.87109375 61.08984375 C25.67241846 77.85217089 23.48961757 92.9268711 19.12890625 109.0703125 C18.41058922 111.82838973 18.41058922 111.82838973 18.11328125 114.6875 C17.79152486 117.28025792 17.507068 119.43444811 16.46484375 121.83203125 C13.77756367 123.64746276 11.69434806 124.10278834 8.46484375 124.83203125 C9.12484375 127.47203125 9.78484375 130.11203125 10.46484375 132.83203125 C14.42484375 131.51203125 18.38484375 130.19203125 22.46484375 128.83203125 C23.78484375 132.79203125 25.10484375 136.75203125 26.46484375 140.83203125 C27.44324219 140.56648437 28.42164063 140.3009375 29.4296875 140.02734375 C30.75387841 139.6704696 32.07809876 139.31370468 33.40234375 138.95703125 C34.04236328 138.78300781 34.68238281 138.60898438 35.34179688 138.4296875 C80.69314943 126.24574204 128.78418382 133.55842637 169.41845703 156.64013672 C210.08204949 180.32418091 239.78395686 220.40093863 252.14453125 265.59375 C255.43730553 278.36942664 257.75137237 290.74427429 257.25 303.9765625 C257.22550781 304.77295135 257.20101563 305.56934021 257.17578125 306.38986206 C257.04843077 310.36701157 256.85074754 314.31718635 256.52685547 318.28320312 C255.98182887 325.75189091 255.98182887 325.75189091 258.66107178 332.5453186 C262.15325902 336.24723594 266.26277013 338.99840733 270.46484375 341.83203125 C271.75586151 342.9184382 273.02850055 344.02808871 274.26171875 345.1796875 C275.00929443 345.86091675 275.00929443 345.86091675 275.77197266 346.5559082 C308.38319851 376.8109592 330.91304203 420.11910986 332.67138672 465.09008789 C332.7911962 469.56682535 332.79890934 474.04151107 332.77734375 478.51953125 C332.77552094 479.308508 332.77369812 480.09748474 332.77182007 480.91036987 C332.72451953 493.09588203 332.19274691 504.91085907 329.46484375 516.83203125 C329.28260254 517.63866211 329.10036133 518.44529297 328.91259766 519.27636719 C319.19989398 561.09698102 319.19989398 561.09698102 307.46484375 572.83203125 C307.10989401 575.81181937 306.80372318 578.78233496 306.52734375 581.76953125 C303.26220156 614.38775854 287.28635723 644.20304739 261.82519531 665.18310547 C243.96985364 679.34543506 223.72744068 689.36791942 201.71484375 695.20703125 C200.81757568 695.44574951 199.92030762 695.68446777 198.99584961 695.93041992 C186.52811212 699.04425735 174.15371034 700.13240197 161.33841228 700.08930016 C159.97980254 700.09200177 158.6211943 700.09557421 157.26258883 700.09992462 C153.56008535 700.10928958 149.85768146 700.10641258 146.15517341 700.10136908 C142.11516183 700.09807961 138.07517054 700.10640387 134.03516561 700.11318743 C126.96434529 700.12346099 119.89355234 700.12633584 112.8227253 700.12427521 C102.30738539 700.12121829 91.79207564 700.12956454 81.2767416 700.14002446 C61.39940841 700.15934515 41.52208554 700.16499199 21.64474406 700.16613857 C6.28920068 700.16705853 -9.06633866 700.17117974 -24.42188072 700.17753983 C-28.84596131 700.17933499 -33.2700419 700.18111462 -37.69412249 700.18288958 C-39.34401242 700.18355273 -39.34401242 700.18355273 -41.02723346 700.18422927 C-71.95841868 700.1965344 -102.88960251 700.20443074 -133.82079029 700.20354271 C-134.98648684 700.20351155 -136.15218338 700.20348039 -137.35320407 700.20344829 C-143.26108512 700.20328208 -149.16896618 700.203084 -155.07684723 700.20287888 C-156.8367508 700.20281904 -156.8367508 700.20281904 -158.63220798 700.202758 C-161.00484448 700.20267712 -163.37748099 700.20259353 -165.75011749 700.20250721 C-202.64877573 700.20128223 -239.5473972 700.21628664 -276.44604492 700.24365234 C-317.92864826 700.27440524 -359.41122743 700.29158287 -400.89384288 700.2897259 C-405.32138137 700.28957665 -409.74891986 700.28947923 -414.17645836 700.28941727 C-415.81164065 700.2893823 -415.81164065 700.2893823 -417.47985692 700.28934663 C-434.98731857 700.28928521 -452.49474817 700.30203164 -470.00220031 700.3192818 C-487.61385561 700.33627508 -505.22546427 700.33818329 -522.83712325 700.32506315 C-533.28528377 700.3176983 -543.73330214 700.32125785 -554.18144745 700.34094783 C-561.17855251 700.35301419 -568.17555545 700.35028347 -575.17265597 700.33600684 C-579.14757142 700.32829946 -583.12221335 700.32652834 -587.0971087 700.34292154 C-613.05263272 700.44283575 -637.79595365 698.11647779 -662.53515625 689.83203125 C-663.38883789 689.54875977 -664.24251953 689.26548828 -665.12207031 688.97363281 C-684.82046326 682.29933644 -703.10803826 672.59447441 -719.53515625 659.83203125 C-720.43621094 659.15269531 -721.33726562 658.47335937 -722.265625 657.7734375 C-754.70454434 632.42603967 -777.41180345 595.99106719 -782.53515625 554.83203125 C-782.57906825 553.48371175 -782.59523824 552.13408207 -782.578125 550.78515625 C-782.44813878 539.20456564 -786.77919488 531.93480746 -792.51953125 522.1015625 C-796.31794277 515.59183085 -799.06523054 508.95953115 -801.53515625 501.83203125 C-801.97214844 500.58808594 -802.40914062 499.34414063 -802.859375 498.0625 C-807.9374057 483.0320571 -811.6398651 466.64779264 -811.73828125 450.7578125 C-811.74529556 450.00028687 -811.75230988 449.24276123 -811.75953674 448.46228027 C-811.77698668 446.02296977 -811.78339139 443.58390193 -811.78515625 441.14453125 C-811.78583099 440.31222992 -811.78650574 439.47992859 -811.78720093 438.62240601 C-811.77110227 426.14022642 -811.38232908 414.03900452 -808.53515625 401.83203125 C-808.36886719 401.10177734 -808.20257812 400.37152344 -808.03125 399.61914062 C-802.02236128 374.09249114 -791.05804872 350.88403018 -775.53515625 329.83203125 C-774.85324219 328.90390625 -774.17132812 327.97578125 -773.46875 327.01953125 C-763.14651596 313.76828755 -750.57852965 301.08583714 -736.53515625 291.83203125 C-735.94589355 291.44144531 -735.35663086 291.05085938 -734.74951172 290.6484375 C-730.08652303 287.58039882 -725.34335446 284.66639669 -720.53515625 281.83203125 C-719.52775391 281.23575928 -719.52775391 281.23575928 -718.5 280.62744141 C-707.04322108 273.94707971 -695.22073383 269.60720639 -682.53515625 265.83203125 C-681.48199219 265.50460937 -680.42882812 265.1771875 -679.34375 264.83984375 C-672.9152841 263.02452732 -666.3270993 262.12721066 -659.72265625 261.20703125 C-658.24575317 260.99361084 -658.24575317 260.99361084 -656.73901367 260.77587891 C-651.53839051 260.09496955 -646.66348543 259.78675537 -641.42578125 260.16015625 C-631.29138384 261.05672354 -631.29138384 261.05672354 -622.3984375 257.02685547 C-618.21868729 252.05121468 -615.226837 246.40611727 -612.17089844 240.69873047 C-609.56093251 236.1246678 -606.37561336 232.06655936 -603.09765625 227.95703125 C-602.26415649 226.88110718 -602.26415649 226.88110718 -601.41381836 225.78344727 C-598.22854305 221.72802462 -594.85969917 218.01698543 -591.14697266 214.43774414 C-589.44861043 212.74581315 -587.89621266 210.97374772 -586.34765625 209.14453125 C-579.73918393 201.49418267 -572.46315853 194.25507007 -564.75390625 187.71484375 C-563.00592724 186.23152353 -561.28160266 184.72032715 -559.56640625 183.19921875 C-541.5594372 167.30775746 -521.33942199 153.78823475 -500.53515625 141.83203125 C-499.75350098 141.38102051 -498.9718457 140.93000977 -498.16650391 140.46533203 C-467.74331584 123.04441399 -435.17896831 110.47300522 -401.53515625 100.83203125 C-400.46458984 100.52523437 -399.39402344 100.2184375 -398.29101562 99.90234375 C-368.9111754 91.61435989 -338.87615416 86.85598099 -308.53515625 83.83203125 C-307.23854568 83.70210281 -307.23854568 83.70210281 -305.91574097 83.56954956 C-298.02624421 82.83870251 -290.18995995 82.65563236 -282.26953125 82.62890625 C-281.27027493 82.62466518 -281.27027493 82.62466518 -280.2508316 82.62033844 C-276.70611702 82.60544463 -273.1614419 82.59616061 -269.61669922 82.59179688 C-266.764677 82.58746871 -263.91296699 82.57378671 -261.06103516 82.55078125 C-218.70697108 82.21647327 -177.7775906 88.01638238 -136.625 97.84375 C-135.90969116 98.01443497 -135.19438232 98.18511993 -134.45739746 98.36097717 C-130.11416373 99.41160662 -125.82275978 100.57808638 -121.53515625 101.83203125 C-121.86515625 100.65640625 -122.19515625 99.48078125 -122.53515625 98.26953125 C-124.68833844 88.53407178 -124.21863008 78.39190677 -121.53515625 68.83203125 C-123.02015625 69.32703125 -123.02015625 69.32703125 -124.53515625 69.83203125 C-128.41744325 70.19150227 -130.80190322 70.21532261 -134.28515625 68.39453125 C-139.72098679 62.20372424 -140.01424473 54.29947335 -139.91015625 46.39453125 C-139.92175781 45.51732422 -139.93335938 44.64011719 -139.9453125 43.73632812 C-139.88586335 30.2909123 -134.30514803 17.43577689 -125.03515625 7.70703125 C-118.74060909 1.8620946 -112.17192485 -0.19632017 -103.62890625 -0.37890625 C-102.72011719 -0.40726563 -101.81132813 -0.435625 -100.875 -0.46484375 C-98.9819695 -0.51692162 -97.08870816 -0.56119471 -95.1953125 -0.59765625 C-90.13958368 -0.76976617 -86.65995078 -0.96228604 -82.53515625 -4.16796875 C-56.62971912 -22.06098702 -25.36806736 -17.09830091 0 0 Z " fill="#6E5B46" transform="translate(811.53515625,15.16796875)"/>
<path d="M0 0 C14.83592005 11.02701506 19.09244681 27.24725254 21.75585938 44.81420898 C22.37658304 49.14742587 22.93499004 53.48685771 23.46484375 57.83203125 C23.59890625 58.90710938 23.73296875 59.9821875 23.87109375 61.08984375 C25.67241846 77.85217089 23.48961757 92.9268711 19.12890625 109.0703125 C18.41058922 111.82838973 18.41058922 111.82838973 18.11328125 114.6875 C17.79152486 117.28025792 17.507068 119.43444811 16.46484375 121.83203125 C13.77756367 123.64746276 11.69434806 124.10278834 8.46484375 124.83203125 C9.12484375 127.47203125 9.78484375 130.11203125 10.46484375 132.83203125 C14.42484375 131.51203125 18.38484375 130.19203125 22.46484375 128.83203125 C23.78484375 132.79203125 25.10484375 136.75203125 26.46484375 140.83203125 C27.44324219 140.56648437 28.42164063 140.3009375 29.4296875 140.02734375 C30.75387841 139.6704696 32.07809876 139.31370468 33.40234375 138.95703125 C34.04236328 138.78300781 34.68238281 138.60898438 35.34179688 138.4296875 C80.69314943 126.24574204 128.78418382 133.55842637 169.41845703 156.64013672 C210.08204949 180.32418091 239.78395686 220.40093863 252.14453125 265.59375 C255.43730553 278.36942664 257.75137237 290.74427429 257.25 303.9765625 C257.22550781 304.77295135 257.20101562 305.56934021 257.17578125 306.38986206 C257.04843077 310.36701157 256.85074754 314.31718635 256.52685547 318.28320312 C255.98182887 325.75189091 255.98182887 325.75189091 258.66107178 332.5453186 C262.15325902 336.24723594 266.26277013 338.99840733 270.46484375 341.83203125 C271.75586151 342.9184382 273.02850055 344.02808871 274.26171875 345.1796875 C275.00929443 345.86091675 275.00929443 345.86091675 275.77197266 346.5559082 C308.38319851 376.8109592 330.91304203 420.11910986 332.67138672 465.09008789 C332.7911962 469.56682535 332.79890934 474.04151107 332.77734375 478.51953125 C332.77460953 479.70299637 332.77460953 479.70299637 332.77182007 480.91036987 C332.72451953 493.09588203 332.19274691 504.91085907 329.46484375 516.83203125 C329.28260254 517.63866211 329.10036133 518.44529297 328.91259766 519.27636719 C319.19989398 561.09698102 319.19989398 561.09698102 307.46484375 572.83203125 C307.10989401 575.81181937 306.80372318 578.78233496 306.52734375 581.76953125 C303.26220156 614.38775854 287.28635723 644.20304739 261.82519531 665.18310547 C243.96985364 679.34543506 223.72744068 689.36791942 201.71484375 695.20703125 C200.81757568 695.44574951 199.92030762 695.68446777 198.99584961 695.93041992 C183.2287871 699.86826906 167.84315732 700.10636314 151.6875 700.02734375 C149.42207464 700.02360567 147.15664765 700.02076246 144.89122009 700.01876831 C138.97795005 700.01119439 133.06478093 699.99160071 127.15155029 699.96936035 C121.0977922 699.94876622 115.04401753 699.9397378 108.99023438 699.9296875 C97.14839357 699.90834796 85.30662711 699.87428894 73.46484375 699.83203125 C70.354519 690.50105699 71.27849371 679.5114164 71.27954102 669.7421875 C71.27735358 667.4672576 71.25911784 665.19281359 71.24023438 662.91796875 C71.21010842 654.7320855 71.72860698 646.97082967 73.03930664 638.86621094 C73.59641107 634.89392529 73.48591188 631.1341014 73.27734375 627.14453125 C72.86204905 610.29869997 77.28175487 593.24506402 81.66796875 577.06640625 C88.59206378 548.96272644 80.77794852 522.93405688 66.30004883 498.97338867 C59.84996856 488.26538191 54.62227611 478.25709953 52.46484375 465.83203125 C25.99059821 465.6434121 25.99059821 465.6434121 0.46484375 471.83203125 C-2.19596957 472.852698 -4.85858995 473.85426083 -7.53515625 474.83203125 C-8.58123047 475.21681641 -9.62730469 475.60160156 -10.70507812 475.99804688 C-20.05838783 479.29005002 -29.4034971 481.39263054 -39.13760376 483.22784424 C-66.34435485 487.81636987 -66.34435485 487.81636987 -90.6953125 499.9609375 C-92.53515625 500.83203125 -92.53515625 500.83203125 -94.59375 500.234375 C-97.00620949 498.49177348 -98.14542913 497.51071978 -99.53515625 494.83203125 C-100.0530408 491.54769595 -100.1408427 488.27737132 -100.22265625 484.95703125 C-100.25609131 484.02479736 -100.28952637 483.09256348 -100.32397461 482.13208008 C-100.57039006 474.69929413 -100.64763772 467.26830617 -100.53515625 459.83203125 C-101.41945313 459.59097656 -102.30375 459.34992188 -103.21484375 459.1015625 C-106.82621003 457.72074598 -108.84642741 456.14362005 -111.66015625 453.51953125 C-112.48773437 452.76027344 -113.3153125 452.00101562 -114.16796875 451.21875 C-116.53515625 448.83203125 -116.53515625 448.83203125 -118.71484375 446.1015625 C-120.3346322 443.75816181 -120.3346322 443.75816181 -122.53515625 442.83203125 C-124.00917651 442.727464 -125.48726319 442.67688328 -126.96484375 442.65625 C-127.84269531 442.63240234 -128.72054687 442.60855469 -129.625 442.58398438 C-131.47372744 442.54120176 -133.32275664 442.5098502 -135.171875 442.49023438 C-141.9175251 442.27788961 -141.9175251 442.27788961 -145.10546875 439.9765625 C-147.27025408 436.72938451 -147.63867767 434.47121888 -147.24609375 430.69921875 C-146.28171239 421.32419439 -146.28171239 421.32419439 -149.62890625 412.9296875 C-152.49880765 410.700677 -155.46734944 408.77718449 -158.53515625 406.83203125 C-168.18614812 398.33857963 -175.6723808 388.09913446 -182.84765625 377.51953125 C-198.06628683 354.60418906 -198.06628683 354.60418906 -220.84765625 341.14453125 C-221.73453125 341.04140625 -222.62140625 340.93828125 -223.53515625 340.83203125 C-223.04015625 342.31703125 -223.04015625 342.31703125 -222.53515625 343.83203125 C-222.346112 345.33725481 -222.195221 346.84747767 -222.0703125 348.359375 C-221.99232422 349.23400391 -221.91433594 350.10863281 -221.83398438 351.00976562 C-221.67679251 352.84540292 -221.52312982 354.68134593 -221.37304688 356.51757812 C-221.29376953 357.39349609 -221.21449219 358.26941406 -221.1328125 359.171875 C-221.06586182 359.96972412 -220.99891113 360.76757324 -220.92993164 361.58959961 C-220.49827753 364.04151244 -219.8569787 365.72457881 -218.53515625 367.83203125 C-215.37275043 369.9403018 -214.02858156 370.1702059 -210.34765625 370.45703125 C-208.99607422 370.56917969 -208.99607422 370.56917969 -207.6171875 370.68359375 C-206.93011719 370.73257812 -206.24304688 370.7815625 -205.53515625 370.83203125 C-205.03136858 373.93559557 -204.53278212 377.03997348 -204.03515625 380.14453125 C-203.89207031 381.02560547 -203.74898437 381.90667969 -203.6015625 382.81445312 C-203.46621094 383.66201172 -203.33085938 384.50957031 -203.19140625 385.3828125 C-203.00288086 386.55324097 -203.00288086 386.55324097 -202.81054688 387.74731445 C-202.53515625 389.83203125 -202.53515625 389.83203125 -202.53515625 392.83203125 C-204.18515625 392.50203125 -205.83515625 392.17203125 -207.53515625 391.83203125 C-208.03015625 390.34703125 -208.03015625 390.34703125 -208.53515625 388.83203125 C-217.99520223 390.02641153 -226.91979033 392.11959325 -236.03515625 394.89453125 C-236.67914368 395.08812225 -237.3231311 395.28171326 -237.9866333 395.48117065 C-249.88861136 399.07396062 -261.27008828 403.57251276 -272.53515625 408.83203125 C-276.35805834 402.30124018 -276.04977905 397.16873482 -274.22265625 390.01953125 C-270.66819078 374.30239247 -269.46903454 357.89473776 -268.53515625 341.83203125 C-272.49515625 342.16203125 -276.45515625 342.49203125 -280.53515625 342.83203125 C-280.96828125 344.52328125 -281.40140625 346.21453125 -281.84765625 347.95703125 C-284.41835924 357.17854381 -288.18142184 363.1326925 -296.6015625 368.03515625 C-298.53515625 368.83203125 -298.53515625 368.83203125 -301.53515625 368.83203125 C-301.98955078 367.94451172 -301.98955078 367.94451172 -302.453125 367.0390625 C-305.01612221 362.20485545 -307.44382026 358.46877435 -311.53515625 354.83203125 C-311.86515625 354.50203125 -312.19515625 354.17203125 -312.53515625 353.83203125 C-314.86333589 353.46442394 -317.19699475 353.12961544 -319.53515625 352.83203125 C-324.02413525 340.38146686 -324.94143041 328.36332048 -321.78515625 315.45703125 C-321.62829346 314.80355713 -321.47143066 314.15008301 -321.30981445 313.47680664 C-319.82613889 307.88580475 -318.06413917 302.31159751 -312.87109375 299.2734375 C-299.47886359 295.29817129 -299.47886359 295.29817129 -293.53515625 296.83203125 C-290.87181668 299.22664822 -290.54554026 300.74978622 -290.09375 304.328125 C-290.03380859 306.27912109 -290.03380859 306.27912109 -289.97265625 308.26953125 C-289.7663055 316.31533548 -289.7663055 316.31533548 -285.53515625 322.83203125 C-284.62765625 322.97640625 -283.72015625 323.12078125 -282.78515625 323.26953125 C-278.88898675 325.14268967 -278.44283386 326.42681746 -276.53515625 330.20703125 C-274.17006217 334.86999452 -272.55790358 337.76384117 -267.53515625 339.83203125 C-264.39715356 340.39062859 -261.66043629 340.50857655 -258.53515625 339.83203125 C-256.10532577 337.8808495 -256.10532577 337.8808495 -254.53515625 334.83203125 C-253.66658875 333.39063549 -252.79128827 331.95328075 -251.91015625 330.51953125 C-251.50539063 329.82214844 -251.100625 329.12476563 -250.68359375 328.40625 C-250.30460938 327.88675781 -249.925625 327.36726563 -249.53515625 326.83203125 C-248.87515625 326.83203125 -248.21515625 326.83203125 -247.53515625 326.83203125 C-247.93347656 326.13078125 -248.33179688 325.42953125 -248.7421875 324.70703125 C-257.26088128 309.45214409 -257.26088128 309.45214409 -256.53515625 301.83203125 C-256.20515625 301.17203125 -255.87515625 300.51203125 -255.53515625 299.83203125 C-255.1414163 295.18589987 -254.99504649 292.23676981 -257.53515625 288.26953125 C-259.86877556 284.25862307 -260.44561787 282.38433933 -259.53515625 277.83203125 C-257.96851758 276.12452316 -256.35146525 274.81614591 -254.45703125 273.484375 C-252.28606646 271.81159052 -252.28606646 271.81159052 -250.796875 268.69140625 C-248.53515625 265.83203125 -248.53515625 265.83203125 -244.8828125 265.0703125 C-243.4542871 265.05574767 -242.02491528 265.0826554 -240.59765625 265.14453125 C-239.84202393 265.16378662 -239.0863916 265.18304199 -238.30786133 265.20288086 C-227.37515358 265.73976006 -218.5593385 270.51827113 -209.3828125 276.15234375 C-206.73499607 277.71415591 -204.09236235 278.96414611 -201.28515625 280.20703125 C-192.65818421 284.48611946 -188.04680089 292.39510567 -183.09472656 300.32592773 C-175.86234593 311.80373417 -166.82377009 322.06061836 -157.91357422 332.25390625 C-156.65788367 333.69152292 -155.41051261 335.13639554 -154.1640625 336.58203125 C-140.07003102 353.2205716 -140.07003102 353.2205716 -121.53515625 362.83203125 C-119.24609375 364.1015625 -119.24609375 364.1015625 -116.91015625 365.64453125 C-111.76537986 368.84263549 -106.43004341 371.34807528 -100.53515625 372.83203125 C-99.87515625 372.50203125 -99.21515625 372.17203125 -98.53515625 371.83203125 C-98.22578125 370.86265625 -97.91640625 369.89328125 -97.59765625 368.89453125 C-96.53515625 365.83203125 -96.53515625 365.83203125 -93.53515625 363.83203125 C-92.90890267 360.69839042 -92.90890267 360.69839042 -92.66015625 357.01953125 C-92.13534165 351.9395181 -91.29562911 347.77616519 -89.16015625 343.08203125 C-82.23666629 326.10104552 -82.18057326 306.62040423 -81.72265625 288.51953125 C-81.69032898 287.26464401 -81.69032898 287.26464401 -81.65734863 285.98440552 C-81.60055409 283.58341916 -81.55498042 281.1825808 -81.515625 278.78125 C-81.50131943 278.06667633 -81.48701385 277.35210266 -81.47227478 276.61587524 C-81.42809055 272.57248974 -81.74502036 268.7974073 -82.53515625 264.83203125 C-83.19515625 264.83203125 -83.85515625 264.83203125 -84.53515625 264.83203125 C-84.86515625 265.82203125 -85.19515625 266.81203125 -85.53515625 267.83203125 C-88.79406831 269.50142493 -91.60665941 268.47348343 -94.96777344 267.44726562 C-95.65000977 267.22361328 -96.33224609 266.99996094 -97.03515625 266.76953125 C-97.7405957 266.54201172 -98.44603516 266.31449219 -99.17285156 266.08007812 C-116.31346999 260.35878622 -116.31346999 260.35878622 -121.53515625 252.83203125 C-121.86515625 251.84203125 -122.19515625 250.85203125 -122.53515625 249.83203125 C-124.70973903 248.01098925 -124.70973903 248.01098925 -127.41015625 246.20703125 C-139.41093101 237.6948538 -150.3363567 228.35515274 -159.53515625 216.83203125 C-163.09057864 213.96794099 -165.87239541 213.50639922 -170.40771484 213.57592773 C-173.86828517 213.99251464 -176.70013535 215.64872472 -179.72265625 217.26953125 C-188.73791482 221.67374225 -197.31897456 221.63929574 -207.18212891 221.75195312 C-210.31667209 221.85862776 -213.32733284 222.33332846 -216.41015625 222.89453125 C-234.70091634 226.01038245 -234.70091634 226.01038245 -241.84765625 221.64453125 C-244.13429633 220.2666207 -245.18506259 219.81397317 -247.8828125 219.953125 C-255.10240245 221.74965357 -260.05167567 226.00656834 -265.53515625 230.83203125 C-282.92877327 245.83203125 -282.92877327 245.83203125 -288.53515625 245.83203125 C-286.8765212 241.50698289 -283.66411525 238.737843 -280.41015625 235.58203125 C-279.84683594 235.02773437 -279.28351562 234.4734375 -278.703125 233.90234375 C-277.31829597 232.5409864 -275.92732421 231.18588266 -274.53515625 229.83203125 C-275.06995605 230.01902588 -275.60475586 230.20602051 -276.15576172 230.39868164 C-278.57126979 231.23841326 -280.99058317 232.06658932 -283.41015625 232.89453125 C-284.67279297 233.33635742 -284.67279297 233.33635742 -285.9609375 233.78710938 C-286.76660156 234.06103516 -287.57226562 234.33496094 -288.40234375 234.6171875 C-289.14597168 234.8737915 -289.88959961 235.13039551 -290.65576172 235.39477539 C-292.53515625 235.83203125 -292.53515625 235.83203125 -294.53515625 234.83203125 C-290.57241311 231.34600909 -286.86903423 228.73807026 -282.09765625 226.39453125 C-281.50509033 226.0994165 -280.91252441 225.80430176 -280.30200195 225.50024414 C-277.03080627 223.90632167 -273.74526026 222.50300951 -270.32421875 221.26171875 C-269.63900146 221.00962646 -268.95378418 220.75753418 -268.24780273 220.49780273 C-266.922075 220.02105218 -265.58812731 219.56643496 -264.24633789 219.13696289 C-262.18017696 218.45810013 -262.18017696 218.45810013 -259.53515625 216.83203125 C-258.73155546 213.85949935 -258.73155546 213.85949935 -258.53515625 210.83203125 C-257.54908711 209.81829181 -256.54988925 208.81707792 -255.53515625 207.83203125 C-255.06833346 205.52902611 -255.06833346 205.52902611 -255.03515625 203.01953125 C-254.73952736 198.59795132 -253.55827875 195.78631614 -251.53515625 191.83203125 C-251.84453125 190.65640625 -251.84453125 190.65640625 -252.16015625 189.45703125 C-252.78328188 185.09515183 -250.01732959 182.26245059 -247.53515625 178.83203125 C-246.57609375 177.47078125 -246.57609375 177.47078125 -245.59765625 176.08203125 C-241.1537751 171.23416091 -236.85983532 169.01028711 -230.40234375 168.6640625 C-199.62684338 168.51349743 -167.11970804 168.66942732 -139.18850708 182.66122437 C-136.66157436 183.92521437 -134.12244753 185.16376025 -131.58372498 186.40385437 C-129.70919303 187.31961492 -127.83599619 188.23806451 -125.96289062 189.15673828 C-114.22770894 194.89226654 -103.51291581 199.64954121 -90.53515625 201.83203125 C-88.51089193 202.2267778 -86.49022533 202.63719855 -84.46948242 203.04956055 C-81.49395881 203.65674344 -78.51424032 204.2426058 -75.53515625 204.83203125 C-74.64570312 205.04472656 -73.75625 205.25742188 -72.83984375 205.4765625 C-69.44046108 206.00087406 -66.74952293 204.90348681 -63.53515625 203.83203125 C-63.49777344 203.0328125 -63.46039062 202.23359375 -63.421875 201.41015625 C-62.86634039 192.12946033 -61.73437413 183.21297027 -57.53515625 174.83203125 C-56.39270764 167.9773396 -58.63515981 161.83327083 -62.03515625 155.90625 C-65.78595746 151.29393664 -69.95460991 150.68028554 -75.5546875 149.66015625 C-89.60022848 147.07596813 -102.28937001 136.78339451 -110.69140625 125.609375 C-120.77833951 110.41486325 -125.93645879 93.13524746 -123.07421875 74.89453125 C-122.63475463 72.85643679 -122.0986235 70.83938333 -121.53515625 68.83203125 C-122.52515625 69.16203125 -123.51515625 69.49203125 -124.53515625 69.83203125 C-128.41744325 70.19150227 -130.80190322 70.21532261 -134.28515625 68.39453125 C-139.72098679 62.20372424 -140.01424473 54.29947335 -139.91015625 46.39453125 C-139.92175781 45.51732422 -139.93335938 44.64011719 -139.9453125 43.73632812 C-139.88586335 30.2909123 -134.30514803 17.43577689 -125.03515625 7.70703125 C-118.74060909 1.8620946 -112.17192485 -0.19632017 -103.62890625 -0.37890625 C-102.26572266 -0.42144531 -102.26572266 -0.42144531 -100.875 -0.46484375 C-98.9819695 -0.51692162 -97.08870816 -0.56119471 -95.1953125 -0.59765625 C-90.13958368 -0.76976617 -86.65995078 -0.96228604 -82.53515625 -4.16796875 C-56.62971912 -22.06098702 -25.36806736 -17.09830091 0 0 Z " fill="#6F5B46" transform="translate(811.53515625,15.16796875)"/>
<path d="M0 0 C14.83592005 11.02701506 19.09244681 27.24725254 21.75585938 44.81420898 C22.37658304 49.14742587 22.93499004 53.48685771 23.46484375 57.83203125 C23.59890625 58.90710938 23.73296875 59.9821875 23.87109375 61.08984375 C25.67241846 77.85217089 23.48961757 92.9268711 19.12890625 109.0703125 C18.41058922 111.82838973 18.41058922 111.82838973 18.11328125 114.6875 C17.79152486 117.28025792 17.507068 119.43444811 16.46484375 121.83203125 C13.77756367 123.64746276 11.69434806 124.10278834 8.46484375 124.83203125 C9.12484375 127.47203125 9.78484375 130.11203125 10.46484375 132.83203125 C14.42484375 131.51203125 18.38484375 130.19203125 22.46484375 128.83203125 C23.49865213 131.744674 24.51715012 134.66120532 25.52734375 137.58203125 C25.96916992 138.81953125 25.96916992 138.81953125 26.41992188 140.08203125 C26.69384766 140.88125 26.96777344 141.68046875 27.25 142.50390625 C27.506604 143.23706055 27.76320801 143.97021484 28.02758789 144.72558594 C28.53076912 147.14962149 28.36062815 148.53470264 27.46484375 150.83203125 C25.40234375 152.08203125 25.40234375 152.08203125 23.46484375 152.83203125 C23.62565576 159.26451182 27.06259767 162.58452141 31.46484375 166.83203125 C35.03709231 169.95841224 38.71909057 172.91685812 42.46484375 175.83203125 C43.16867187 176.39019531 43.8725 176.94835937 44.59765625 177.5234375 C48.10543428 180.24303059 51.6564874 182.53258935 55.52734375 184.70703125 C63.40500873 189.36586538 68.93117517 195.98237545 71.46484375 204.83203125 C72.11598109 208.43617454 72.59775752 212.06721051 73.11254883 215.69287109 C73.99624992 221.31203869 75.5834741 226.1502098 77.90234375 231.33203125 C91.99095015 262.85136431 88.83189362 302.71849856 77.66015625 334.73828125 C76.48689622 337.77495427 75.22533558 340.75918582 73.94189453 343.75024414 C68.5814149 356.31860842 65.16278386 368.93845533 63.10424805 382.44555664 C61.39214377 393.6181701 58.32909098 402.77654966 53.375 412.8984375 C50.29661685 419.43835021 47.48266118 426.53581787 48.46484375 433.83203125 C48.96276557 435.11201507 49.48541853 436.38254798 50.02734375 437.64453125 C53.68488451 446.75354944 49.21497751 456.95485529 46.46484375 465.83203125 C45.71090332 465.83614014 44.95696289 465.84024902 44.18017578 465.84448242 C27.32085412 466.00488851 12.69974465 467.16983333 -3.08203125 473.18359375 C-4.56472588 473.73759116 -6.04939009 474.28632489 -7.53515625 474.83203125 C-8.58074707 475.21681641 -9.62633789 475.60160156 -10.70361328 475.99804688 C-20.05778235 479.28902619 -29.40296559 481.39253033 -39.13760376 483.22784424 C-66.34435485 487.81636987 -66.34435485 487.81636987 -90.6953125 499.9609375 C-92.53515625 500.83203125 -92.53515625 500.83203125 -94.59375 500.234375 C-97.00620949 498.49177348 -98.14542913 497.51071978 -99.53515625 494.83203125 C-100.0530408 491.54769595 -100.1408427 488.27737132 -100.22265625 484.95703125 C-100.25609131 484.02479736 -100.28952637 483.09256348 -100.32397461 482.13208008 C-100.57039006 474.69929413 -100.64763772 467.26830617 -100.53515625 459.83203125 C-101.41945313 459.59097656 -102.30375 459.34992188 -103.21484375 459.1015625 C-106.82621003 457.72074598 -108.84642741 456.14362005 -111.66015625 453.51953125 C-112.48773437 452.76027344 -113.3153125 452.00101562 -114.16796875 451.21875 C-116.53515625 448.83203125 -116.53515625 448.83203125 -118.71484375 446.1015625 C-120.3346322 443.75816181 -120.3346322 443.75816181 -122.53515625 442.83203125 C-124.00917651 442.727464 -125.48726319 442.67688328 -126.96484375 442.65625 C-127.84269531 442.63240234 -128.72054687 442.60855469 -129.625 442.58398438 C-131.47372744 442.54120176 -133.32275664 442.5098502 -135.171875 442.49023438 C-141.9175251 442.27788961 -141.9175251 442.27788961 -145.10546875 439.9765625 C-147.27025408 436.72938451 -147.63867767 434.47121888 -147.24609375 430.69921875 C-146.28171239 421.32419439 -146.28171239 421.32419439 -149.62890625 412.9296875 C-152.49880765 410.700677 -155.46734944 408.77718449 -158.53515625 406.83203125 C-168.18614812 398.33857963 -175.6723808 388.09913446 -182.84765625 377.51953125 C-198.06628683 354.60418906 -198.06628683 354.60418906 -220.84765625 341.14453125 C-221.73453125 341.04140625 -222.62140625 340.93828125 -223.53515625 340.83203125 C-223.04015625 342.31703125 -223.04015625 342.31703125 -222.53515625 343.83203125 C-222.346112 345.33725481 -222.195221 346.84747767 -222.0703125 348.359375 C-221.99232422 349.23400391 -221.91433594 350.10863281 -221.83398438 351.00976562 C-221.67679251 352.84540292 -221.52312982 354.68134593 -221.37304688 356.51757812 C-221.29376953 357.39349609 -221.21449219 358.26941406 -221.1328125 359.171875 C-221.06586182 359.96972412 -220.99891113 360.76757324 -220.92993164 361.58959961 C-220.49827753 364.04151244 -219.8569787 365.72457881 -218.53515625 367.83203125 C-215.37275043 369.9403018 -214.02858156 370.1702059 -210.34765625 370.45703125 C-208.99607422 370.56917969 -208.99607422 370.56917969 -207.6171875 370.68359375 C-206.93011719 370.73257812 -206.24304688 370.7815625 -205.53515625 370.83203125 C-205.03136858 373.93559557 -204.53278212 377.03997348 -204.03515625 380.14453125 C-203.89207031 381.02560547 -203.74898437 381.90667969 -203.6015625 382.81445312 C-203.46621094 383.66201172 -203.33085938 384.50957031 -203.19140625 385.3828125 C-203.00288086 386.55324097 -203.00288086 386.55324097 -202.81054688 387.74731445 C-202.53515625 389.83203125 -202.53515625 389.83203125 -202.53515625 392.83203125 C-204.18515625 392.50203125 -205.83515625 392.17203125 -207.53515625 391.83203125 C-208.03015625 390.34703125 -208.03015625 390.34703125 -208.53515625 388.83203125 C-217.99520223 390.02641153 -226.91979033 392.11959325 -236.03515625 394.89453125 C-236.67914368 395.08812225 -237.3231311 395.28171326 -237.9866333 395.48117065 C-249.88861136 399.07396062 -261.27008828 403.57251276 -272.53515625 408.83203125 C-276.35805834 402.30124018 -276.04977905 397.16873482 -274.22265625 390.01953125 C-270.66819078 374.30239247 -269.46903454 357.89473776 -268.53515625 341.83203125 C-272.49515625 342.16203125 -276.45515625 342.49203125 -280.53515625 342.83203125 C-280.96828125 344.52328125 -281.40140625 346.21453125 -281.84765625 347.95703125 C-284.41835924 357.17854381 -288.18142184 363.1326925 -296.6015625 368.03515625 C-298.53515625 368.83203125 -298.53515625 368.83203125 -301.53515625 368.83203125 C-301.98955078 367.94451172 -301.98955078 367.94451172 -302.453125 367.0390625 C-305.01612221 362.20485545 -307.44382026 358.46877435 -311.53515625 354.83203125 C-311.86515625 354.50203125 -312.19515625 354.17203125 -312.53515625 353.83203125 C-314.86333589 353.46442394 -317.19699475 353.12961544 -319.53515625 352.83203125 C-324.02413525 340.38146686 -324.94143041 328.36332048 -321.78515625 315.45703125 C-321.62829346 314.80355713 -321.47143066 314.15008301 -321.30981445 313.47680664 C-319.82613889 307.88580475 -318.06413917 302.31159751 -312.87109375 299.2734375 C-299.47886359 295.29817129 -299.47886359 295.29817129 -293.53515625 296.83203125 C-290.87181668 299.22664822 -290.54554026 300.74978622 -290.09375 304.328125 C-290.03380859 306.27912109 -290.03380859 306.27912109 -289.97265625 308.26953125 C-289.7663055 316.31533548 -289.7663055 316.31533548 -285.53515625 322.83203125 C-284.62765625 322.97640625 -283.72015625 323.12078125 -282.78515625 323.26953125 C-278.88898675 325.14268967 -278.44283386 326.42681746 -276.53515625 330.20703125 C-274.17006217 334.86999452 -272.55790358 337.76384117 -267.53515625 339.83203125 C-264.39715356 340.39062859 -261.66043629 340.50857655 -258.53515625 339.83203125 C-256.10532577 337.8808495 -256.10532577 337.8808495 -254.53515625 334.83203125 C-253.66658875 333.39063549 -252.79128827 331.95328075 -251.91015625 330.51953125 C-251.50539063 329.82214844 -251.100625 329.12476563 -250.68359375 328.40625 C-250.30460938 327.88675781 -249.925625 327.36726563 -249.53515625 326.83203125 C-248.87515625 326.83203125 -248.21515625 326.83203125 -247.53515625 326.83203125 C-247.93347656 326.13078125 -248.33179688 325.42953125 -248.7421875 324.70703125 C-257.26088128 309.45214409 -257.26088128 309.45214409 -256.53515625 301.83203125 C-256.20515625 301.17203125 -255.87515625 300.51203125 -255.53515625 299.83203125 C-255.1414163 295.18589987 -254.99504649 292.23676981 -257.53515625 288.26953125 C-259.86877556 284.25862307 -260.44561787 282.38433933 -259.53515625 277.83203125 C-257.96851758 276.12452316 -256.35146525 274.81614591 -254.45703125 273.484375 C-252.28606646 271.81159052 -252.28606646 271.81159052 -250.796875 268.69140625 C-248.53515625 265.83203125 -248.53515625 265.83203125 -244.8828125 265.0703125 C-243.4542871 265.05574767 -242.02491528 265.0826554 -240.59765625 265.14453125 C-239.84202393 265.16378662 -239.0863916 265.18304199 -238.30786133 265.20288086 C-227.37515358 265.73976006 -218.5593385 270.51827113 -209.3828125 276.15234375 C-206.73499607 277.71415591 -204.09236235 278.96414611 -201.28515625 280.20703125 C-192.65818421 284.48611946 -188.04680089 292.39510567 -183.09472656 300.32592773 C-175.86234593 311.80373417 -166.82377009 322.06061836 -157.91357422 332.25390625 C-156.65788367 333.69152292 -155.41051261 335.13639554 -154.1640625 336.58203125 C-140.07003102 353.2205716 -140.07003102 353.2205716 -121.53515625 362.83203125 C-119.24609375 364.1015625 -119.24609375 364.1015625 -116.91015625 365.64453125 C-111.76537986 368.84263549 -106.43004341 371.34807528 -100.53515625 372.83203125 C-99.87515625 372.50203125 -99.21515625 372.17203125 -98.53515625 371.83203125 C-98.22578125 370.86265625 -97.91640625 369.89328125 -97.59765625 368.89453125 C-96.53515625 365.83203125 -96.53515625 365.83203125 -93.53515625 363.83203125 C-92.90890267 360.69839042 -92.90890267 360.69839042 -92.66015625 357.01953125 C-92.13534165 351.9395181 -91.29562911 347.77616519 -89.16015625 343.08203125 C-82.23666629 326.10104552 -82.18057326 306.62040423 -81.72265625 288.51953125 C-81.69032898 287.26464401 -81.69032898 287.26464401 -81.65734863 285.98440552 C-81.60055409 283.58341916 -81.55498042 281.1825808 -81.515625 278.78125 C-81.50131943 278.06667633 -81.48701385 277.35210266 -81.47227478 276.61587524 C-81.42809055 272.57248974 -81.74502036 268.7974073 -82.53515625 264.83203125 C-83.19515625 264.83203125 -83.85515625 264.83203125 -84.53515625 264.83203125 C-84.86515625 265.82203125 -85.19515625 266.81203125 -85.53515625 267.83203125 C-88.79406831 269.50142493 -91.60665941 268.47348343 -94.96777344 267.44726562 C-95.65000977 267.22361328 -96.33224609 266.99996094 -97.03515625 266.76953125 C-97.7405957 266.54201172 -98.44603516 266.31449219 -99.17285156 266.08007812 C-116.31346999 260.35878622 -116.31346999 260.35878622 -121.53515625 252.83203125 C-121.86515625 251.84203125 -122.19515625 250.85203125 -122.53515625 249.83203125 C-124.70973903 248.01098925 -124.70973903 248.01098925 -127.41015625 246.20703125 C-139.41093101 237.6948538 -150.3363567 228.35515274 -159.53515625 216.83203125 C-163.09057864 213.96794099 -165.87239541 213.50639922 -170.40771484 213.57592773 C-173.86828517 213.99251464 -176.70013535 215.64872472 -179.72265625 217.26953125 C-188.73791482 221.67374225 -197.31897456 221.63929574 -207.18212891 221.75195312 C-210.31667209 221.85862776 -213.32733284 222.33332846 -216.41015625 222.89453125 C-234.70091634 226.01038245 -234.70091634 226.01038245 -241.84765625 221.64453125 C-244.13429633 220.2666207 -245.18506259 219.81397317 -247.8828125 219.953125 C-255.10240245 221.74965357 -260.05167567 226.00656834 -265.53515625 230.83203125 C-282.92877327 245.83203125 -282.92877327 245.83203125 -288.53515625 245.83203125 C-286.8765212 241.50698289 -283.66411525 238.737843 -280.41015625 235.58203125 C-279.84683594 235.02773437 -279.28351562 234.4734375 -278.703125 233.90234375 C-277.31829597 232.5409864 -275.92732421 231.18588266 -274.53515625 229.83203125 C-275.06995605 230.01902588 -275.60475586 230.20602051 -276.15576172 230.39868164 C-278.57126979 231.23841326 -280.99058317 232.06658932 -283.41015625 232.89453125 C-284.67279297 233.33635742 -284.67279297 233.33635742 -285.9609375 233.78710938 C-286.76660156 234.06103516 -287.57226562 234.33496094 -288.40234375 234.6171875 C-289.14597168 234.8737915 -289.88959961 235.13039551 -290.65576172 235.39477539 C-292.53515625 235.83203125 -292.53515625 235.83203125 -294.53515625 234.83203125 C-290.57241311 231.34600909 -286.86903423 228.73807026 -282.09765625 226.39453125 C-281.50509033 226.0994165 -280.91252441 225.80430176 -280.30200195 225.50024414 C-277.03080627 223.90632167 -273.74526026 222.50300951 -270.32421875 221.26171875 C-269.63900146 221.00962646 -268.95378418 220.75753418 -268.24780273 220.49780273 C-266.922075 220.02105218 -265.58812731 219.56643496 -264.24633789 219.13696289 C-262.18017696 218.45810013 -262.18017696 218.45810013 -259.53515625 216.83203125 C-258.73155546 213.85949935 -258.73155546 213.85949935 -258.53515625 210.83203125 C-257.54908711 209.81829181 -256.54988925 208.81707792 -255.53515625 207.83203125 C-255.06833346 205.52902611 -255.06833346 205.52902611 -255.03515625 203.01953125 C-254.73952736 198.59795132 -253.55827875 195.78631614 -251.53515625 191.83203125 C-251.84453125 190.65640625 -251.84453125 190.65640625 -252.16015625 189.45703125 C-252.78328188 185.09515183 -250.01732959 182.26245059 -247.53515625 178.83203125 C-246.57609375 177.47078125 -246.57609375 177.47078125 -245.59765625 176.08203125 C-241.1537751 171.23416091 -236.85983532 169.01028711 -230.40234375 168.6640625 C-199.62684338 168.51349743 -167.11970804 168.66942732 -139.18850708 182.66122437 C-136.66157436 183.92521437 -134.12244753 185.16376025 -131.58372498 186.40385437 C-129.70919303 187.31961492 -127.83599619 188.23806451 -125.96289062 189.15673828 C-114.22770894 194.89226654 -103.51291581 199.64954121 -90.53515625 201.83203125 C-88.51089193 202.2267778 -86.49022533 202.63719855 -84.46948242 203.04956055 C-81.49395881 203.65674344 -78.51424032 204.2426058 -75.53515625 204.83203125 C-74.64570312 205.04472656 -73.75625 205.25742188 -72.83984375 205.4765625 C-69.44046108 206.00087406 -66.74952293 204.90348681 -63.53515625 203.83203125 C-63.49777344 203.0328125 -63.46039062 202.23359375 -63.421875 201.41015625 C-62.86634039 192.12946033 -61.73437413 183.21297027 -57.53515625 174.83203125 C-56.39270764 167.9773396 -58.63515981 161.83327083 -62.03515625 155.90625 C-65.78595746 151.29393664 -69.95460991 150.68028554 -75.5546875 149.66015625 C-89.60022848 147.07596813 -102.28937001 136.78339451 -110.69140625 125.609375 C-120.77833951 110.41486325 -125.93645879 93.13524746 -123.07421875 74.89453125 C-122.63475463 72.85643679 -122.0986235 70.83938333 -121.53515625 68.83203125 C-122.52515625 69.16203125 -123.51515625 69.49203125 -124.53515625 69.83203125 C-128.41744325 70.19150227 -130.80190322 70.21532261 -134.28515625 68.39453125 C-139.72098679 62.20372424 -140.01424473 54.29947335 -139.91015625 46.39453125 C-139.92175781 45.51732422 -139.93335938 44.64011719 -139.9453125 43.73632812 C-139.88586335 30.2909123 -134.30514803 17.43577689 -125.03515625 7.70703125 C-118.74060909 1.8620946 -112.17192485 -0.19632017 -103.62890625 -0.37890625 C-102.26572266 -0.42144531 -102.26572266 -0.42144531 -100.875 -0.46484375 C-98.9819695 -0.51692162 -97.08870816 -0.56119471 -95.1953125 -0.59765625 C-90.13958368 -0.76976617 -86.65995078 -0.96228604 -82.53515625 -4.16796875 C-56.62971912 -22.06098702 -25.36806736 -17.09830091 0 0 Z " fill="#B3A273" transform="translate(811.53515625,15.16796875)"/>
<path d="M0 0 C1.58332048 0.01508697 3.16665501 0.02876822 4.75 0.04101562 C8.58368777 0.07367426 12.41668359 0.12522937 16.25 0.1875 C16.55583008 1.16009766 16.86166016 2.13269531 17.17675781 3.13476562 C19.58460986 10.65764505 22.16098084 17.75421903 26 24.6875 C26.42829102 25.48518799 26.85658203 26.28287598 27.29785156 27.10473633 C29.68563505 31.50561984 32.20770221 35.79689754 34.8581543 40.04370117 C49.56699149 63.63382044 51.50693731 90.14681128 45.3203125 116.97265625 C44.69087458 119.53320743 43.99731259 122.04328117 43.25 124.57421875 C39.76454066 137.16816364 37.62229442 150.29152349 38.22216797 163.36816406 C38.4013469 167.93775688 37.99932831 172.13539187 37.26953125 176.65625 C36.10513504 184.26823487 35.97992246 191.69380211 36.04418945 199.37329102 C36.06245462 201.61941996 36.06469794 203.86513242 36.06445312 206.11132812 C36.09571988 215.53497613 36.62050467 224.74507011 37.25 234.1875 C-9.61 234.1875 -56.47 234.1875 -104.75 234.1875 C-105.74 226.9275 -106.73 219.6675 -107.75 212.1875 C-108.42421825 208.42117737 -109.1123899 204.68298225 -109.875 200.9375 C-111.18603919 194.2100683 -112.0065728 187.72481405 -112.1875 180.875 C-112.39677545 173.1179719 -114.13555023 166.38553686 -116.59375 159.0546875 C-118.51554234 153.06982792 -118.80051296 147.09327 -118.93969727 140.84936523 C-119.18254724 131.38804817 -120.52409989 122.41244482 -122.3125 113.125 C-124.22660289 103.18357087 -124.96993392 93.92630333 -124.625 83.8125 C-124.25916776 72.61352099 -126.01959072 65.76566611 -131.75 56.1875 C-133.73939454 50.43913898 -133.44741869 43.65171272 -131.8125 37.875 C-126.29687299 30.68797086 -118.08893675 27.8926945 -109.75 25.1875 C-108.60233154 24.80327881 -107.45466309 24.41905762 -106.2722168 24.02319336 C-97.21795106 21.04508405 -88.20898441 18.92454727 -78.83850098 17.21838379 C-63.37543668 14.3829628 -47.80886565 11.22369703 -33.421875 4.671875 C-22.24061289 0.15179032 -11.85426507 -0.19848654 0 0 Z " fill="#503F30" transform="translate(847.75,480.8125)"/>
<path d="M0 0 C14.83592005 11.02701506 19.09244681 27.24725254 21.75585938 44.81420898 C22.37658304 49.14742587 22.93499004 53.48685771 23.46484375 57.83203125 C23.59890625 58.90710938 23.73296875 59.9821875 23.87109375 61.08984375 C25.67460951 77.87255983 23.44787045 92.89766947 19.140625 109.06640625 C18.26910028 112.63310858 17.74473526 116.22981387 17.28515625 119.87109375 C16.46484375 121.83203125 16.46484375 121.83203125 14.50390625 122.97265625 C10.27515342 124.16844754 6.02320378 125.09663391 1.71484375 125.95703125 C0.85890625 126.13878906 0.00296875 126.32054687 -0.87890625 126.5078125 C-6.35482722 127.61129354 -11.94730395 128.5866585 -17.53515625 127.83203125 C-22.68333703 124.36260507 -24.15948022 119.63265249 -25.53515625 113.83203125 C-26.07184753 110.83785885 -26.54400212 107.83768563 -27.01171875 104.83203125 C-28.17441065 98.16824483 -29.46593006 91.61963376 -34.53515625 86.83203125 C-40.56906883 82.847372 -47.13063122 79.84476125 -54.53515625 80.83203125 C-57.32077444 82.90134762 -58.47138838 84.69895048 -59.97265625 87.83203125 C-61.80438809 91.34895638 -63.07666741 92.87723321 -66.53515625 94.83203125 C-69.78535596 95.75238483 -72.28324593 95.77747483 -75.53515625 94.83203125 C-78.21084252 92.84061884 -80.48425759 90.63357023 -82.84765625 88.28125 C-86.4720838 84.97817431 -90.45677566 82.81739669 -94.7734375 80.53515625 C-98.06518518 78.50516758 -100.22515222 76.97062368 -102.53515625 73.83203125 C-103.0822542 70.43084973 -102.91703009 67.13686842 -102.72265625 63.70703125 C-102.64482659 61.91312133 -102.57544502 60.11881949 -102.515625 58.32421875 C-102.47332764 57.5338623 -102.43103027 56.74350586 -102.38745117 55.92919922 C-102.38301174 53.52413625 -102.38301174 53.52413625 -104.53515625 50.83203125 C-107.61881496 50.58181555 -107.61881496 50.58181555 -110.53515625 50.83203125 C-110.77298828 51.93611328 -110.77298828 51.93611328 -111.015625 53.0625 C-112.81717053 60.5971407 -114.70858565 64.41962805 -121.41015625 68.64453125 C-125.11680868 70.05305917 -127.59954874 70.33292675 -131.53515625 69.83203125 C-136.27228744 67.35580358 -137.39318242 64.22412475 -138.91992188 59.39770508 C-139.95982292 55.06107013 -139.96861689 50.83429181 -139.91015625 46.39453125 C-139.92175781 45.51732422 -139.93335938 44.64011719 -139.9453125 43.73632812 C-139.88586335 30.2909123 -134.30514803 17.43577689 -125.03515625 7.70703125 C-118.74060909 1.8620946 -112.17192485 -0.19632017 -103.62890625 -0.37890625 C-102.72011719 -0.40726563 -101.81132813 -0.435625 -100.875 -0.46484375 C-98.9819695 -0.51692162 -97.08870816 -0.56119471 -95.1953125 -0.59765625 C-90.13958368 -0.76976617 -86.65995078 -0.96228604 -82.53515625 -4.16796875 C-56.62971912 -22.06098702 -25.36806736 -17.09830091 0 0 Z " fill="#4F3E30" transform="translate(811.53515625,15.16796875)"/>
<path d="M0 0 C0.95550499 0.37818375 0.95550499 0.37818375 1.93031311 0.76400757 C3.26964075 1.29784415 4.60657965 1.83770965 5.94116211 2.38330078 C7.95729063 3.2046775 9.98235266 3.99992218 12.00976562 4.79296875 C28.54238872 11.37939229 28.54238872 11.37939229 33.03515625 18.9609375 C35.13846152 26.58541909 33.67398786 33.25035398 31.83544922 40.75195312 C31.60124771 41.73869522 31.3670462 42.72543732 31.12574768 43.74208069 C30.35155308 46.99424104 29.56457131 50.24315959 28.77734375 53.4921875 C28.23045869 55.77720444 27.68433936 58.06240476 27.13894653 60.34777832 C25.69929847 66.37058692 24.24863546 72.39069133 22.7958374 78.41033936 C21.62762445 83.25845127 20.4669234 88.10834529 19.30673027 92.95838165 C16.8828584 103.09070014 14.45358301 113.22172885 12.01123047 123.34960938 C11.79903366 124.23258194 11.58683685 125.1155545 11.36820984 126.02528381 C8.66140663 137.23027568 5.83117069 148.40187973 3.03515625 159.5859375 C-16.76484375 159.5859375 -36.56484375 159.5859375 -56.96484375 159.5859375 C-56.96484375 149.94409304 -56.85138101 140.46275844 -56.30859375 130.859375 C-56.17092593 128.27102487 -56.03382104 125.68264476 -55.8972168 123.09423828 C-55.82539886 121.7508336 -55.75357056 120.40742947 -55.68173218 119.06402588 C-54.64857235 99.62261835 -53.6564664 80.18480851 -53.65234375 60.7109375 C-53.64912109 59.96865906 -53.64589844 59.22638062 -53.64257812 58.46160889 C-53.61987083 50.07812198 -53.94059461 42.64656035 -57.08984375 34.7734375 C-58.5886966 29.31333068 -59.32614507 23.60357504 -56.9375 18.30859375 C-50.86499524 9.54467414 -41.77874557 5.75767678 -31.96484375 2.5859375 C-31.17851563 2.30878906 -30.3921875 2.03164063 -29.58203125 1.74609375 C-19.40506863 -1.81761616 -10.41848276 -4.1392525 0 0 Z " fill="#503F31" transform="translate(669.96484375,555.4140625)"/>
<path d="M0 0 C2.53924045 1.25885294 5.08158803 2.51131839 7.625 3.76171875 C8.24348312 4.06661728 8.86196625 4.37151581 9.49919128 4.68565369 C15.45795516 7.60463789 21.53008136 10.25979732 27.7097168 12.67675781 C30.65900997 13.90294572 32.51247913 14.77923555 34.25390625 17.51171875 C36.0065092 26.10314998 35.52695715 35.90869939 32.8125 44.25 C32.4825 45.27867187 32.1525 46.30734375 31.8125 47.3671875 C29.32812421 54.4443896 26.42191255 61.0798032 20.8125 66.25 C18.90234375 67.15234375 18.90234375 67.15234375 16.8125 67.25 C3.16169782 61.25752921 -11.11315169 47.11237042 -20.3203125 35.578125 C-22.47293841 32.89409772 -24.02389801 31.61610086 -27.1875 30.25 C-33.29086749 29.7760764 -36.98361258 30.79640472 -42.375 33.6875 C-51.39025857 38.091711 -59.97131831 38.05726449 -69.83447266 38.16992188 C-72.96901584 38.27659651 -75.97967659 38.75129721 -79.0625 39.3125 C-97.35326009 42.4283512 -97.35326009 42.4283512 -104.5 38.0625 C-106.78664008 36.68458945 -107.83740634 36.23194192 -110.53515625 36.37109375 C-117.7547462 38.16762232 -122.70401942 42.42453709 -128.1875 47.25 C-145.58111702 62.25 -145.58111702 62.25 -151.1875 62.25 C-149.52886495 57.92495164 -146.316459 55.15581175 -143.0625 52 C-142.49917969 51.44570312 -141.93585937 50.89140625 -141.35546875 50.3203125 C-139.97063972 48.95895515 -138.57966796 47.60385141 -137.1875 46.25 C-137.98969971 46.53049194 -137.98969971 46.53049194 -138.80810547 46.81665039 C-141.22361354 47.65638201 -143.64292692 48.48455807 -146.0625 49.3125 C-146.90425781 49.60705078 -147.74601563 49.90160156 -148.61328125 50.20507812 C-149.41894531 50.47900391 -150.22460938 50.75292969 -151.0546875 51.03515625 C-152.17012939 51.42006226 -152.17012939 51.42006226 -153.30810547 51.81274414 C-155.1875 52.25 -155.1875 52.25 -157.1875 51.25 C-153.22475686 47.76397784 -149.52137798 45.15603901 -144.75 42.8125 C-144.15743408 42.51738525 -143.56486816 42.22227051 -142.9543457 41.91821289 C-139.68315002 40.32429042 -136.39760401 38.92097826 -132.9765625 37.6796875 C-132.29134521 37.42759521 -131.60612793 37.17550293 -130.90014648 36.91577148 C-129.57441875 36.43902093 -128.24047106 35.98440371 -126.89868164 35.55493164 C-124.83252071 34.87606888 -124.83252071 34.87606888 -122.1875 33.25 C-121.38389921 30.2774681 -121.38389921 30.2774681 -121.1875 27.25 C-120.20143086 26.23626056 -119.202233 25.23504667 -118.1875 24.25 C-117.72067721 21.94699486 -117.72067721 21.94699486 -117.6875 19.4375 C-117.39187111 15.01592007 -116.2106225 12.20428489 -114.1875 8.25 C-114.39375 7.46625 -114.6 6.6825 -114.8125 5.875 C-115.43562563 1.51312058 -112.66967334 -1.31958066 -110.1875 -4.75 C-109.548125 -5.6575 -108.90875 -6.565 -108.25 -7.5 C-88.85615047 -28.65692676 -21.2764662 -10.66809146 0 0 Z " fill="#BCAB7A" transform="translate(674.1875,198.75)"/>
<path d="M0 0 C3.125 0.3125 3.125 0.3125 4.80419922 2.04077148 C6.31147726 4.63323399 6.46498599 6.00271423 6.3828125 8.97265625 C6.36154297 10.2865332 6.36154297 10.2865332 6.33984375 11.62695312 C6.29537109 12.98723633 6.29537109 12.98723633 6.25 14.375 C6.20660882 16.17828646 6.16736697 17.98167882 6.1328125 19.78515625 C6.09631592 20.98023804 6.09631592 20.98023804 6.05908203 22.19946289 C6.03001265 24.50502698 6.03001265 24.50502698 7.125 27.3125 C8.89168318 28.3820514 8.89168318 28.3820514 11.125 29.3125 C17.27444923 32.60525863 22.83534541 35.81665839 27.8125 40.75 C30.82300058 43.56380725 32.7120037 44.87732554 36.875 45.0625 C41.02834486 44.62910749 43.32349816 43.51421639 46.125 40.3125 C47.23718766 38.28085034 48.22431955 36.24772406 49.1328125 34.1171875 C50.125 32.3125 50.125 32.3125 53.125 30.3125 C62.63738858 29.99890477 69.19608287 32.84551068 76.125 39.3125 C80.93812384 45.37347077 81.9834109 54.04664968 83.125 61.5 C83.90856751 66.47986293 85.00395243 70.73103724 87.125 75.3125 C93.72082947 79.70971965 102.55391499 76.81965399 109.89135742 75.38012695 C111.6370332 75.0298276 113.38118764 74.67196071 115.125 74.3125 C117.105 79.2625 117.105 79.2625 119.125 84.3125 C117.62453125 84.97894531 116.1240625 85.64539063 114.578125 86.33203125 C92.33256569 96.30670019 70.51717255 107.05560355 52.125 123.3125 C51.568125 121.4253125 51.568125 121.4253125 51 119.5 C50.39064457 117.76525843 49.76407437 116.03651459 49.125 114.3125 C48.62613281 112.87390625 48.62613281 112.87390625 48.1171875 111.40625 C46.12923251 106.7551855 44.68805869 103.95999895 39.890625 101.97265625 C37.30632482 101.34802768 34.74255461 100.77698357 32.140625 100.24609375 C16.96204462 97.0515661 3.55427433 86.00998739 -4.875 73.3125 C-14.5597978 57.13809383 -18.9279537 38.83421149 -14.64453125 20.12890625 C-13.875 18.3125 -13.875 18.3125 -11.375 16.9375 C-10.55 16.73125 -9.725 16.525 -8.875 16.3125 C-6.97616651 13.29258401 -6.18807621 10.05854231 -5.3125 6.625 C-3.72238635 0.40460721 -3.72238635 0.40460721 0 0 Z " fill="#BCAB7A" transform="translate(703.875,64.6875)"/>
<path d="M0 0 C4.52364028 3.12794382 9.01815901 4.68782391 14.28515625 6.171875 C22.79863952 8.69518117 27.95905843 11.53012458 32.4296875 19.48828125 C36.07154936 26.34522428 39.14921673 33.32108668 41.28515625 40.796875 C35.47644586 39.19447213 30.57967951 36.93196686 25.41015625 33.859375 C14.06509869 27.24280824 3.50391253 23.48905495 -9.71484375 25.796875 C-12.15767589 27.60808445 -13.24961195 29.05892461 -14.609375 31.75390625 C-15.71484375 33.796875 -15.71484375 33.796875 -17.8203125 35.35546875 C-20.09066935 36.73657182 -20.09066935 36.73657182 -20.21484375 40.046875 C-19.71385003 43.80432791 -18.62473782 45.81326837 -16.609375 48.9609375 C-15.00241276 52.25906962 -15.40918053 55.19004904 -15.71484375 58.796875 C-16.04484375 59.456875 -16.37484375 60.116875 -16.71484375 60.796875 C-16.59934109 67.95804007 -14.49499967 72.83577097 -11.08984375 79.09765625 C-9.91481285 81.40432202 -9.02297542 83.23481719 -8.71484375 85.796875 C-9.99791465 87.17864366 -11.34597424 88.50005126 -12.71484375 89.796875 C-14.07155202 91.82386176 -15.32329966 93.89395027 -16.56640625 95.9921875 C-17.71484375 97.796875 -17.71484375 97.796875 -19.71484375 99.796875 C-24.35282388 100.59460758 -27.9131469 100.21256967 -32.08984375 98.046875 C-35.06272996 95.49868682 -36.99891423 93.43795544 -38.5703125 89.8359375 C-40.53113028 85.10289317 -40.53113028 85.10289317 -44.77734375 82.484375 C-45.74671875 82.2575 -46.71609375 82.030625 -47.71484375 81.796875 C-50.46644907 79.70945028 -51.07808459 78.12888201 -51.71484375 74.796875 C-51.93567484 71.59657686 -52.10643239 68.40231524 -52.23242188 65.19726562 C-52.42312672 61.5738735 -52.65276283 59.88999638 -54.71484375 56.796875 C-63.55588547 54.84198331 -72.70675626 58.90986554 -80.58984375 62.546875 C-84.02679219 63.92165438 -86.06216016 64.43212432 -89.71484375 63.796875 C-92.87192499 61.41152473 -94.44833854 59.84848029 -95.42797852 55.98291016 C-95.92643728 50.44683626 -94.12323799 45.47190699 -92.65234375 40.171875 C-92.36423828 39.05941406 -92.07613281 37.94695312 -91.77929688 36.80078125 C-88.77698357 25.75586849 -84.94872517 14.0801772 -74.71484375 7.796875 C-69.11886141 5.26965717 -63.43344796 5.42823794 -57.40234375 5.296875 C-46.05333788 5.04679969 -37.6375958 3.6247211 -27.60351562 -1.72460938 C-17.64917339 -6.95147135 -9.20513316 -6.4582711 0 0 Z " fill="#503F30" transform="translate(572.71484375,256.203125)"/>
<path d="M0 0 C2.66333957 2.39461697 2.98961599 3.91775497 3.44140625 7.49609375 C3.50134766 9.44708984 3.50134766 9.44708984 3.5625 11.4375 C3.76885075 19.48330423 3.76885075 19.48330423 8 26 C9.36125 26.2165625 9.36125 26.2165625 10.75 26.4375 C14.6461695 28.31065842 15.09232239 29.59478621 17 33.375 C19.36509408 38.03796327 20.97725267 40.93180992 26 43 C29.13800269 43.55859734 31.87471996 43.6765453 35 43 C37.42983048 41.04881825 37.42983048 41.04881825 39 38 C39.8685675 36.55860424 40.74386798 35.1212495 41.625 33.6875 C42.02976562 32.99011719 42.43453125 32.29273438 42.8515625 31.57421875 C43.42003906 30.79498047 43.42003906 30.79498047 44 30 C44.66 30 45.32 30 46 30 C46.33 29.34 46.66 28.68 47 28 C47.7734375 29.299375 47.7734375 29.299375 48.5625 30.625 C52.00168394 35.77158023 56.9060027 40.44107046 63 42 C66.32737526 42.43646126 69.65354193 42.75307688 73 43 C71.515 43.495 71.515 43.495 70 44 C70.33 44.99 70.66 45.98 71 47 C71.18904425 48.50522356 71.33993525 50.01544642 71.46484375 51.52734375 C71.54283203 52.40197266 71.62082031 53.27660156 71.70117188 54.17773438 C71.85836374 56.01337167 72.01202643 57.84931468 72.16210938 59.68554688 C72.24138672 60.56146484 72.32066406 61.43738281 72.40234375 62.33984375 C72.46929443 63.13769287 72.53624512 63.93554199 72.60522461 64.75756836 C73.03687872 67.20948119 73.67817755 68.89254756 75 71 C78.16240582 73.10827055 79.50657469 73.33817465 83.1875 73.625 C84.53908203 73.73714844 84.53908203 73.73714844 85.91796875 73.8515625 C86.94857422 73.92503906 86.94857422 73.92503906 88 74 C88.50378767 77.10356432 89.00237413 80.20794223 89.5 83.3125 C89.64308594 84.19357422 89.78617188 85.07464844 89.93359375 85.98242188 C90.06894531 86.82998047 90.20429687 87.67753906 90.34375 88.55078125 C90.53227539 89.72120972 90.53227539 89.72120972 90.72460938 90.9152832 C91 93 91 93 91 96 C89.35 95.67 87.7 95.34 86 95 C85.67 94.01 85.34 93.02 85 92 C75.53995402 93.19438028 66.61536592 95.287562 57.5 98.0625 C56.85601257 98.256091 56.21202515 98.44968201 55.54852295 98.6491394 C43.64654489 102.24192937 32.26506797 106.74048151 21 112 C17.17709791 105.46920893 17.4853772 100.33670357 19.3125 93.1875 C22.86696547 77.47036122 24.06612171 61.06270651 25 45 C19.06 45.495 19.06 45.495 13 46 C12.566875 47.69125 12.13375 49.3825 11.6875 51.125 C9.11679701 60.34651256 5.35373441 66.30066125 -3.06640625 71.203125 C-5 72 -5 72 -8 72 C-8.30292969 71.40832031 -8.60585938 70.81664062 -8.91796875 70.20703125 C-11.48096596 65.3728242 -13.90866401 61.6367431 -18 58 C-18.33 57.67 -18.66 57.34 -19 57 C-21.32817964 56.63239269 -23.6618385 56.29758419 -26 56 C-30.488979 43.54943561 -31.40627416 31.53128923 -28.25 18.625 C-28.09313721 17.97152588 -27.93627441 17.31805176 -27.7746582 16.64477539 C-26.29098264 11.0537735 -24.52898292 5.47956626 -19.3359375 2.44140625 C-5.94370734 -1.53385996 -5.94370734 -1.53385996 0 0 Z " fill="#998862" transform="translate(518,312)"/>
<path d="M0 0 C3.97608643 0.6073011 7.00502958 1.85815385 10.55078125 3.73828125 C11.62972656 4.30514648 12.70867187 4.87201172 13.8203125 5.45605469 C14.97273438 6.06868164 16.12515625 6.68130859 17.3125 7.3125 C19.75478113 8.59835539 22.19959393 9.87936007 24.64453125 11.16015625 C25.26212311 11.4843454 25.87971497 11.80853455 26.51602173 12.14254761 C32.4695606 15.26138403 38.47826371 18.26518083 44.5 21.25 C54.75148619 26.34466271 64.89911619 31.61376343 75 37 C76.50258183 37.79952114 78.00518575 38.59900078 79.5078125 39.3984375 C83.00729367 41.26174058 86.50440703 43.12941363 90 45 C82.94079634 60.13989416 75.51551552 75.08249639 68 90 C57.78686181 85.26512966 47.6935295 80.38681041 37.76245117 75.08447266 C30.57163597 71.26187571 23.29210552 67.62412674 16 64 C7.64758394 59.84568044 -0.68326193 55.65925126 -8.9375 51.3125 C-10.07155273 50.71598633 -10.07155273 50.71598633 -11.22851562 50.10742188 C-14.88427575 48.16963228 -18.47605007 46.1722979 -22 44 C-16.3446236 31.80132579 -10.37556602 19.82937455 -4.04003906 7.97021484 C-2.64908838 5.33524489 -1.31713275 2.67250483 0 0 Z " fill="#B1A072" transform="translate(312,517)"/>
<path d="M0 0 C0.24313424 9.96657431 -0.41350627 19.49120549 -1.75 29.375 C-1.84025452 30.05154633 -1.93050903 30.72809265 -2.02349854 31.42514038 C-4.67382061 51.15463643 -7.99637299 66.77917092 -23 81 C-28.57813157 84.64786903 -33.2892838 85.71252778 -40 85 C-44.70850306 83.27958542 -47.3296935 81.23565859 -50 77 C-54.36612471 67.33215243 -55.36944527 56.12493405 -52 46 C-49.64674136 42.94712393 -47.72871728 41.39905946 -44.375 39.5625 C-41.30318602 37.54156975 -40.40851996 35.33596834 -39 32 C-38.34 32 -37.68 32 -37 32 C-37.33 31.01 -37.66 30.02 -38 29 C-39.216875 28.855625 -40.43375 28.71125 -41.6875 28.5625 C-45.05971503 27.88198093 -45.85907401 27.20326432 -47.86328125 24.3125 C-52 16.09829952 -52 16.09829952 -52 12 C-49.14675563 10.57337781 -47.16545451 10.68966132 -44 11 C-38.59260855 13.9740653 -35.71917519 19.63640358 -33 25 C-33 25.66 -33 26.32 -33 27 C-26.41810562 24.17732988 -20.60268915 21.43935801 -17 15 C-16.02838824 12.16844571 -15.27777691 9.37748889 -14.640625 6.453125 C-14 4 -14 4 -12 1 C-8.27143571 -0.57746951 -3.96800038 -0.06613334 0 0 Z " fill="#503F31" transform="translate(543,357)"/>
<path d="M0 0 C0.33 0 0.66 0 1 0 C3.39445804 22.01097223 2.9395092 36.30431235 -9.47119141 55.38720703 C-12.99166363 61.40383012 -14.50398404 68.24498315 -16 75 C-16.99 74.505 -16.99 74.505 -18 74 C-18.625 70.9375 -18.625 70.9375 -19 68 C-19.66 68 -20.32 68 -21 68 C-21.495 69.485 -21.495 69.485 -22 71 C-25.25891206 72.66939368 -28.07150316 71.64145218 -31.43261719 70.61523438 C-32.11485352 70.39158203 -32.79708984 70.16792969 -33.5 69.9375 C-34.20543945 69.70998047 -34.91087891 69.48246094 -35.63769531 69.24804688 C-53.25764825 63.36676001 -53.25764825 63.36676001 -58 56 C-57.67 55.01 -57.34 54.02 -57 53 C-56.39027344 52.86078125 -55.78054688 52.7215625 -55.15234375 52.578125 C-50.53583277 51.33811842 -48.25461762 45.90901264 -46 42 C-41.36016676 31.94900574 -39.82907677 23.02992645 -39.9375 12.0625 C-39.94201172 11.18787109 -39.94652344 10.31324219 -39.95117188 9.41210938 C-39.96285166 7.27470953 -39.98078311 5.13734537 -40 3 C-29.69832871 4.47663079 -19.42528753 6.21621168 -9.30078125 8.6484375 C-5.90408643 9.16745708 -3.21130702 8.07043567 0 7 C0 4.69 0 2.38 0 0 Z " fill="#A39269" transform="translate(748,212)"/>
<path d="M0 0 C5.15928843 0.57668693 9.20979419 3.05579573 13.6875 5.5 C15.37412586 6.40527634 17.06165095 7.30887901 18.75 8.2109375 C19.61238281 8.67209961 20.47476563 9.13326172 21.36328125 9.60839844 C25.60489408 11.84702743 29.89280932 13.99041202 34.1875 16.125 C34.9714917 16.51494141 35.7554834 16.90488281 36.56323242 17.30664062 C38.37464664 18.206124 40.1871867 19.10333966 42 20 C42 20.66 42 21.32 42 22 C42.82757813 22.25523437 43.65515625 22.51046875 44.5078125 22.7734375 C48.43440151 24.15257503 52.12257463 25.83605302 55.875 27.625 C56.56335938 27.94984375 57.25171875 28.2746875 57.9609375 28.609375 C59.64205219 29.40323472 61.32122921 30.20119558 63 31 C63 31.66 63 32.32 63 33 C63.81621826 33.24766113 64.63243652 33.49532227 65.47338867 33.75048828 C69.62018644 35.21973792 73.48286877 37.0511838 77.42578125 38.9921875 C78.21397751 39.37939972 79.00217377 39.76661194 79.81425476 40.16555786 C81.47016354 40.98192655 83.12491591 41.80064464 84.77856445 42.62158203 C87.31564201 43.8765542 89.8616587 45.1120316 92.40820312 46.34765625 C94.01881835 47.14464377 95.62886524 47.94278108 97.23828125 48.7421875 C98.00175369 49.10899628 98.76522614 49.47580505 99.55183411 49.85372925 C104.80431551 52.50216406 104.80431551 52.50216406 105.77099609 54.96147156 C106.12345465 58.0989586 104.82509947 60.0034962 103.38671875 62.77734375 C102.80245117 63.92146729 102.21818359 65.06559082 101.61621094 66.24438477 C100.97338083 67.47546158 100.33047567 68.7064992 99.6875 69.9375 C98.71627428 71.82833165 97.74943763 73.72136135 96.78305054 75.6146698 C96.13201673 76.88991598 95.47968715 78.16450145 94.82608032 79.43843079 C91.40632978 86.11710548 88.19926686 92.89225499 85.0222168 99.68920898 C84.6487915 100.48399658 84.27536621 101.27878418 83.890625 102.09765625 C83.57125977 102.78351807 83.25189453 103.46937988 82.92285156 104.17602539 C82 106 82 106 80 109 C75.93008321 108.37892006 72.73805458 107.04991696 69.0703125 105.19921875 C67.94496094 104.63396484 66.81960938 104.06871094 65.66015625 103.48632812 C64.49355469 102.89271484 63.32695312 102.29910156 62.125 101.6875 C60.96613281 101.10548828 59.80726563 100.52347656 58.61328125 99.92382812 C52.98553019 97.08422573 47.45342621 94.15870187 42 91 C39.86274852 89.89983277 37.71733667 88.81531251 35.5625 87.75 C34.51191406 87.22921875 33.46132813 86.7084375 32.37890625 86.171875 C31.59386719 85.78515625 30.80882812 85.3984375 30 85 C30 84.34 30 83.68 30 83 C29.33589111 82.91169922 28.67178223 82.82339844 27.98754883 82.73242188 C24.11216831 81.78234085 20.7379494 80.07351961 17.19921875 78.28125 C16.44518265 77.9044812 15.69114655 77.5277124 14.91426086 77.13952637 C13.31501308 76.3387335 11.71723946 75.53499075 10.12084961 74.72851562 C7.73721602 73.52509993 5.34860867 72.33209172 2.95898438 71.140625 C-7.19963192 66.05124082 -17.15052148 60.66355588 -27 55 C-24.9633765 48.16967003 -22.18079102 41.96111424 -18.9375 35.625 C-18.45796875 34.67761963 -17.9784375 33.73023926 -17.484375 32.75415039 C-4.7611609 7.70636619 -4.7611609 7.70636619 0 0 Z M6 10 C-1.57643366 24.21419412 -8.84494468 38.56946508 -16 53 C-12.9199118 56.30021995 -9.28375469 58.13909311 -5.3125 60.1875 C-4.64927734 60.53619141 -3.98605469 60.88488281 -3.30273438 61.24414062 C6.46892219 66.34980875 16.37692671 71.19667183 26.2462616 76.10995483 C41.91723068 83.91236472 57.57500453 91.71771351 73 100 C75.04088299 97.39328449 76.70432417 94.83715645 78.17651367 91.87402344 C78.57670212 91.07349548 78.97689056 90.27296753 79.38920593 89.44818115 C79.81119766 88.59387512 80.23318939 87.73956909 80.66796875 86.859375 C81.10764481 85.97719299 81.54732086 85.09501099 82.00032043 84.18609619 C83.39982194 81.37592368 84.79372566 78.56301672 86.1875 75.75 C87.13700168 73.8409627 88.08686729 71.93210636 89.03710938 70.0234375 C91.36229547 65.35104773 93.68289523 60.67640222 96 56 C93.2269284 53.06555111 90.45430031 51.56236023 86.8125 49.77734375 C85.89783463 49.32524536 85.89783463 49.32524536 84.96469116 48.86401367 C83.65812151 48.21878388 82.35024566 47.57619357 81.04119873 46.93600464 C77.59680412 45.25109079 74.16210946 43.54661221 70.7265625 41.84375 C69.70908432 41.34028297 69.70908432 41.34028297 68.67105103 40.8266449 C63.52874552 38.27708956 58.43660589 35.64397316 53.375 32.9375 C44.21093676 28.04575891 34.91279035 23.42638761 25.60302734 18.82006836 C15.98627925 14.04695527 15.98627925 14.04695527 11.859375 11.5859375 C9.10770968 9.75748289 9.10770968 9.75748289 6 10 Z " fill="#534233" transform="translate(306,507)"/>
<path d="M0 0 C11.88815213 0.2767905 23.5864506 1.29737227 35.375 2.875 C36.62821045 3.03645508 37.8814209 3.19791016 39.17260742 3.36425781 C40.95501831 3.61320801 40.95501831 3.61320801 42.7734375 3.8671875 C43.82966309 4.01269043 44.88588867 4.15819336 45.97412109 4.30810547 C55.847909 6.56583622 61.42069337 13.92796576 67.375 21.5625 C73.81123668 29.53591348 81.05534287 34.47780435 91 37 C90.27237989 45.73144133 86.216489 51.94350308 81.26953125 59.01953125 C78.95984408 62.62264324 78.75218301 66.00671145 78.4375 70.1875 C78.35371094 71.27417969 78.26992188 72.36085938 78.18359375 73.48046875 C78.12300781 74.31191406 78.06242187 75.14335938 78 76 C74.11274359 74.84432918 70.574279 73.32772022 66.9375 71.5625 C60.8249783 68.71672544 54.59375724 67.28939927 48 66 C49.28764167 61.87031105 50.83927802 58.11260845 52.8203125 54.26953125 C53.35527344 53.21958984 53.89023437 52.16964844 54.44140625 51.08789062 C55.57019978 48.89185032 56.70042452 46.69654513 57.83203125 44.50195312 C58.36441406 43.45587891 58.89679688 42.40980469 59.4453125 41.33203125 C59.93531738 40.38046143 60.42532227 39.4288916 60.93017578 38.44848633 C62.2001913 35.98716009 62.2001913 35.98716009 62 33 C48.14 26.07 34.28 19.14 20 12 C20 11.34 20 10.68 20 10 C19.33613281 9.91878906 18.67226563 9.83757813 17.98828125 9.75390625 C14.01668518 8.75192188 10.75415441 6.91366546 7.1875 4.9375 C6.49462891 4.56044922 5.80175781 4.18339844 5.08789062 3.79492188 C3.38871015 2.86916148 1.69390575 1.93537688 0 1 C0 0.67 0 0.34 0 0 Z " fill="#988762" transform="translate(349,528)"/>
<path d="M0 0 C1 2 1 2 0.0625 5.125 C-0.288125 6.07375 -0.63875 7.0225 -1 8 C4.5822179 10.86345536 10.16492154 13.72596083 15.74804688 16.58764648 C17.6410792 17.55809864 19.53398631 18.52879509 21.42675781 19.49975586 C32.257235 25.05538953 43.09612829 30.58953249 54 36 C54 36.66 54 37.32 54 38 C52.41933626 39.22606617 50.78236483 40.37978665 49.125 41.5 C43.05923753 45.77986353 38.09274915 50.60897704 33 56 C29.95133857 54.60184431 27.5310548 52.93097374 24.9375 50.8125 C20.76974583 47.48241636 16.42139832 44.77417864 11.7734375 42.1640625 C3.98900341 36.09001111 0.61828263 28.62127904 -2 19.3125 C-2.31066406 18.30638672 -2.62132812 17.30027344 -2.94140625 16.26367188 C-5.68846493 6.91997676 -5.68846493 6.91997676 -4 2 C-1.9375 0.625 -1.9375 0.625 0 0 Z " fill="#998862" transform="translate(281,554)"/>
<path d="M0 0 C0.33 0 0.66 0 1 0 C1.91764157 8.85014316 -0.66842352 15.91437618 -4 24 C-4.28407715 24.71285156 -4.5681543 25.42570312 -4.86083984 26.16015625 C-9.31147615 37.25659366 -14.71478146 46.56014875 -22 56 C-34.24577963 72.1825452 -43.82575555 89.23385495 -53.43505859 107.09521484 C-57.21310721 114.10788605 -61.02944504 121.09416795 -65 128 C-65.35449219 128.6202002 -65.70898438 129.24040039 -66.07421875 129.87939453 C-73.52139446 142.72161993 -83.72391665 152.89148556 -94.265625 163.23046875 C-96.16393636 165.1672594 -97.92462474 167.18954537 -99.6875 169.25 C-104.71996668 175.028855 -109.39219671 178.50278431 -117 180 C-125.2401276 180.47987432 -132.55233671 177.16350588 -140 174 C-140.33 176.64 -140.66 179.28 -141 182 C-141.33 182 -141.66 182 -142 182 C-142 177.38 -142 172.76 -142 168 C-140.80503906 168.44472656 -139.61007812 168.88945312 -138.37890625 169.34765625 C-136.7737842 169.92024365 -135.16829537 170.49180362 -133.5625 171.0625 C-132.77939453 171.35705078 -131.99628906 171.65160156 -131.18945312 171.95507812 C-123.69342883 174.57714424 -117.82056959 174.27302993 -110.421875 171.4296875 C-105.32750686 168.97087062 -101.94847812 165.32309545 -98.25 161.125 C-96.85696448 159.58836609 -95.46373256 158.05191021 -94.0703125 156.515625 C-93.38614258 155.75185547 -92.70197266 154.98808594 -91.99707031 154.20117188 C-90.17652991 152.19457136 -88.32020473 150.23733844 -86.4296875 148.296875 C-85.86991211 147.71663574 -85.31013672 147.13639648 -84.73339844 146.53857422 C-83.72587515 145.49648805 -82.71186046 144.46059661 -81.68847656 143.43408203 C-72.1219373 133.37452316 -65.48273188 120.66814284 -59.18084717 108.4211731 C-57.25934565 104.69074615 -55.30614095 100.9769515 -53.35546875 97.26171875 C-52.9765448 96.53879135 -52.59762085 95.81586395 -52.20721436 95.07102966 C-45.24663983 81.82079197 -37.96208367 69.05721696 -28.65283203 57.29833984 C-15.53425743 40.69959544 -3.70879849 21.14015142 0 0 Z " fill="#A5946A" transform="translate(853,307)"/>
<path d="M0 0 C1.14662109 -0.03867187 1.14662109 -0.03867187 2.31640625 -0.078125 C4.979376 0.33382612 5.73470079 1.21651224 7.4375 3.25 C8.4275 4.24 8.4275 4.24 9.4375 5.25 C-1.59612896 10.68287954 -12.34826407 14.85655348 -24.37109375 17.578125 C-39.68909287 21.06001865 -52.93591014 25.30982423 -66.5625 33.25 C-66.21942544 27.53209063 -64.78842188 24.06071528 -60.5625 20.25 C-57.55150956 18.32326185 -54.39376398 16.87420552 -51.125 15.4375 C-50.18865723 15.01734619 -49.25231445 14.59719238 -48.28759766 14.16430664 C-34.17531351 8.07828447 -15.43429565 0.31338671 0 0 Z " fill="#524132" transform="translate(598.5625,403.75)"/>
<path d="M0 0 C7.56322605 -0.60815414 11.374377 3.4405233 17 8 C17.9796875 8.76699219 18.959375 9.53398437 19.96875 10.32421875 C20.8865625 11.08347656 21.804375 11.84273438 22.75 12.625 C24.01070312 13.66527344 24.01070312 13.66527344 25.296875 14.7265625 C27 17 27 17 26.9453125 20.06640625 C26.00986823 22.96937585 25.32894966 24.27850666 23.125 26.3125 C22.61195313 26.80363281 22.09890625 27.29476563 21.5703125 27.80078125 C18.15499255 30.40899823 14.34833264 30.38622692 10.2265625 30.359375 C6.6632224 29.78423941 5.11680114 27.7783015 3 25 C1.76079748 22.52159495 1.69268965 20.53796776 1.46484375 17.7734375 C1.37783203 16.7421875 1.29082031 15.7109375 1.20117188 14.6484375 C1.11416016 13.56820313 1.02714844 12.48796875 0.9375 11.375 C0.84662109 10.28703125 0.75574219 9.1990625 0.66210938 8.078125 C0.43774049 5.38569843 0.21719886 2.69301291 0 0 Z " fill="#503F30" transform="translate(588,356)"/>
<path d="M0 0 C0.66 0.33 1.32 0.66 2 1 C3.80047002 7.05612644 1.83678557 10.57310587 -1 16 C2.46941546 15.54177532 5.67395049 15.10868317 9 14 C9.66 15.65 10.32 17.3 11 19 C10.34773437 19.12375 9.69546875 19.2475 9.0234375 19.375 C3.87323426 20.5903872 0.7381554 21.64149839 -2.375 26.0625 C-2.79523437 26.75472656 -3.21546875 27.44695312 -3.6484375 28.16015625 C-5.20776236 30.28282102 -6.59008019 31.01039463 -9 32 C-10.29935464 29.48287811 -11.58954372 26.96170913 -12.875 24.4375 C-13.23980469 23.73302734 -13.60460937 23.02855469 -13.98046875 22.30273438 C-16.19942197 17.92534485 -17.81066956 13.76358139 -19 9 C-15.88112823 7.46635461 -12.75402378 5.95031107 -9.625 4.4375 C-8.73554687 3.99986328 -7.84609375 3.56222656 -6.9296875 3.11132812 C-6.07890625 2.70205078 -5.228125 2.29277344 -4.3515625 1.87109375 C-3.56604004 1.48880615 -2.78051758 1.10651855 -1.97119141 0.71264648 C-1.32069824 0.47747314 -0.67020508 0.2422998 0 0 Z " fill="#3E2D24" transform="translate(562,260)"/>
<path d="M0 0 C0.67417969 0.16371094 1.34835937 0.32742187 2.04296875 0.49609375 C5.51367906 1.0875358 8.79322124 1.09539046 12.3125 1.0625 C13.56675781 1.05347656 14.82101562 1.04445312 16.11328125 1.03515625 C17.06589844 1.02355469 18.01851562 1.01195312 19 1 C19.495 4.465 19.495 4.465 20 8 C17.23723823 7.47731534 14.6739124 6.89130413 12 6 C4.38795586 7.54797166 -0.54276662 12.02944481 -5.99609375 17.2578125 C-9.22938536 20.29385916 -12.71374116 22.91464099 -16.3125 25.5 C-16.88709961 25.92104004 -17.46169922 26.34208008 -18.05371094 26.77587891 C-21.56810524 29.26447754 -24.85519196 30.8462259 -29 32 C-27.34136495 27.67495164 -24.128959 24.90581175 -20.875 21.75 C-20.31167969 21.19570312 -19.74835937 20.64140625 -19.16796875 20.0703125 C-17.78313972 18.70895515 -16.39216796 17.35385141 -15 16 C-15.5347998 16.18699463 -16.06959961 16.37398926 -16.62060547 16.56665039 C-19.03611354 17.40638201 -21.45542692 18.23455807 -23.875 19.0625 C-24.71675781 19.35705078 -25.55851563 19.65160156 -26.42578125 19.95507812 C-27.23144531 20.22900391 -28.03710938 20.50292969 -28.8671875 20.78515625 C-29.98262939 21.17006226 -29.98262939 21.17006226 -31.12060547 21.56274414 C-33 22 -33 22 -35 21 C-31.03725686 17.51397784 -27.33387798 14.90603901 -22.5625 12.5625 C-21.97065918 12.27173584 -21.37881836 11.98097168 -20.76904297 11.68139648 C-13.99956661 8.41706751 -7.01592004 5.68255766 0 3 C0 2.01 0 1.02 0 0 Z " fill="#AE9D70" transform="translate(552,229)"/>
<path d="M0 0 C3.43516831 3.53926432 4.48337442 6.14371959 5 11 C5.52600444 14.14179603 5.52600444 14.14179603 7.625 16.4375 C9 18 9 18 8.9375 20.5625 C8 23 8 23 5.94140625 24.15234375 C5.30074219 24.43207031 4.66007813 24.71179688 4 25 C2.70064536 22.48287811 1.41045628 19.96170913 0.125 17.4375 C-0.23980469 16.73302734 -0.60460937 16.02855469 -0.98046875 15.30273438 C-3.19942197 10.92534485 -4.81066956 6.76358139 -6 2 C-2.25 0 -2.25 0 0 0 Z " fill="#2D1D19" transform="translate(549,267)"/>
<path d="M0 0 C-2.12379501 4.89212483 -5.44032014 7.37540379 -10 10 C-13.60574905 11.30043408 -17.27000774 12.13567076 -21 13 C-22.90008804 13.54795596 -24.79627369 14.1096996 -26.6875 14.6875 C-27.93080078 15.06455078 -27.93080078 15.06455078 -29.19921875 15.44921875 C-29.79347656 15.63097656 -30.38773438 15.81273437 -31 16 C-27.76800778 11.21865068 -24.31885613 9.25868142 -19.25 6.875 C-18.57195313 6.54113281 -17.89390625 6.20726562 -17.1953125 5.86328125 C-5.10085784 0 -5.10085784 0 0 0 Z " fill="#A19068" transform="translate(548,235)"/>
<path d="M0 0 C0.33 2.31 0.66 4.62 1 7 C-1.76276177 6.47731534 -4.3260876 5.89130413 -7 5 C-7.825 5.33 -8.65 5.66 -9.5 6 C-12 7 -12 7 -15 6 C-13.875 3.5625 -13.875 3.5625 -12 1 C-8.01651016 -0.15078595 -4.12788411 -0.09828295 0 0 Z " fill="#A19067" transform="translate(571,230)"/>
<path d="M0 0 C-8.35873272 3.58231402 -16.07985057 3.29551415 -25 3 C-25.33 3.66 -25.66 4.32 -26 5 C-26.66 3.68 -27.32 2.36 -28 1 C-27.12263184 0.96241577 -27.12263184 0.96241577 -26.22753906 0.92407227 C-23.56815529 0.80777038 -20.90909597 0.68519933 -18.25 0.5625 C-16.86941406 0.50352539 -16.86941406 0.50352539 -15.4609375 0.44335938 C-14.57148437 0.40146484 -13.68203125 0.35957031 -12.765625 0.31640625 C-11.94868164 0.27974854 -11.13173828 0.24309082 -10.29003906 0.20532227 C-8.00200493 0.06108272 -8.00200493 0.06108272 -5.84277344 -0.54711914 C-3.59472716 -1.09960004 -2.17704819 -0.69976549 0 0 Z " fill="#B09F72" transform="translate(775,166)"/>
<path d="M0 0 C1.65 0.33 3.3 0.66 5 1 C4.34 1.66 3.68 2.32 3 3 C3.99 3.99 4.98 4.98 6 6 C4.35 6.66 2.7 7.32 1 8 C0.26919734 6.02253397 -0.39421747 4.01927511 -1 2 C-0.67 1.34 -0.34 0.68 0 0 Z " fill="#433228" transform="translate(552,270)"/>
<path d="M0 0 C0.66 0.33 1.32 0.66 2 1 C2.625 3.0625 2.625 3.0625 3 5 C1.125 5.625 1.125 5.625 -1 6 C-1.66 5.34 -2.32 4.68 -3 4 C-2.67 3.01 -2.34 2.02 -2 1 C-1.34 0.67 -0.68 0.34 0 0 Z " fill="#36251F" transform="translate(562,260)"/>
</svg>
