<?xml version="1.0" encoding="UTF-8"?>
<svg version="1.1" xmlns="http://www.w3.org/2000/svg" width="300" height="300">
<path d="M0 0 C3.9184639 -0.08163466 6.00429603 0.20380628 9.10546875 2.68359375 C16.11535416 10.0617283 19.14900363 17.6689675 19.4375 27.8125 C19.19318255 34.47212084 17.94957984 38.00611153 13.25 42.8125 C9.58793422 45.27735197 7.4084132 46.08163728 3 46 C0.75 44.125 0.75 44.125 -1 42 C-4.33265769 40.8891141 -6.8878201 40.85815781 -10.3984375 40.82421875 C-11.68363281 40.80037109 -12.96882813 40.77652344 -14.29296875 40.75195312 C-16.97559395 40.7059671 -19.65670971 40.67802924 -22.33984375 40.65820312 C-31.18148601 40.46942923 -38.70426937 39.07625253 -47 36 C-45.35 36.99 -43.7 37.98 -42 39 C-42.1451001 39.61858887 -42.2902002 40.23717773 -42.43969727 40.87451172 C-44.4243145 50.30208766 -44.084749 59.4961985 -43.83398438 69.08203125 C-43.73822365 75.61357296 -43.80433195 81.16546845 -46.33374023 87.24902344 C-47.48363391 90.27102323 -47.16450153 92.02405166 -46 95 C-41.54297913 100.93366305 -35.40898499 104.47957163 -29 108 C-29 107.34 -29 106.68 -29 106 C-28.443125 105.92523438 -27.88625 105.85046875 -27.3125 105.7734375 C-22.69510078 104.97787209 -19.86582895 104.12692724 -16.4375 100.875 C-11.95993933 97.11493891 -7.1684577 97.55511043 -1.63452148 97.87060547 C2.15722919 98.08362003 4.78134162 98.15683294 8 96 C7.36971413 97.68076231 6.69040574 99.34302621 6 101 C5.8246875 101.66257812 5.649375 102.32515625 5.46875 103.0078125 C4.5997649 105.56754034 3.89691496 107.04380645 2 109 C-2.59058971 110.60458112 -7.18567208 111.38211834 -12 112 C-10.783125 112.433125 -9.56625 112.86625 -8.3125 113.3125 C0.24247712 116.56793377 0.24247712 116.56793377 2.10546875 120.08984375 C4.48716523 127.83815762 4.40254073 138.22759396 0.9375 145.625 C-4.51516629 154.5461679 -11.00494979 158.91367313 -21 162 C-24.05456606 162.58079777 -26.8849257 162.84424629 -30 163 C-29.84273438 162.40445313 -29.68546875 161.80890625 -29.5234375 161.1953125 C-28.0158476 154.87243546 -29.18813033 150.30714799 -32.2109375 144.734375 C-40.45467284 132.1347795 -53.25308194 121.7192238 -66.42578125 114.609375 C-68.35905517 112.63292622 -68.96952853 110.89468358 -69.22436523 108.14990234 C-68.72390698 103.35443401 -66.07315712 99.15046184 -63.875 94.9375 C-62.84927974 92.88524773 -61.82841577 90.83056087 -60.8125 88.7734375 C-60.07773438 87.2879541 -60.07773438 87.2879541 -59.328125 85.77246094 C-52.7050773 71.95356257 -52.7050773 71.95356257 -53.125 57.1875 C-55.19529737 53.66799447 -56.20330615 52.43430656 -60 51 C-63.31356943 50.5396019 -66.66539667 50.10471747 -69.56640625 52.05078125 C-71.69232817 54.94133994 -72.6680765 58.1998346 -73.8125 61.5625 C-76.86633713 70.10246798 -80.34215829 77.65647699 -87 84 C-87.99 83.67 -88.98 83.34 -90 83 C-89.96519531 82.32195312 -89.93039063 81.64390625 -89.89453125 80.9453125 C-89.59780141 70.74345785 -92.17196237 63.0814165 -96.9140625 54.12890625 C-100.61257791 46.87821956 -100.11081148 35.97857677 -98.3515625 28.09375 C-97.42605833 25.84722707 -96.38374354 23.99458529 -95 22 C-94.34064453 20.9790625 -94.34064453 20.9790625 -93.66796875 19.9375 C-86.4419044 10.27835575 -72.56318411 5.41135095 -61.06298828 3.29296875 C-49.9863582 1.71995619 -39.09263084 2.93312437 -28.16772461 4.92529297 C-19.45460468 6.43753985 -10.81242214 6.26644501 -2 6 C-1.34 4.02 -0.68 2.04 0 0 Z " fill="#BEAE7C" transform="translate(182,52)"/>
<path d="M0 0 C3.06328937 1.58360007 4.95459455 3.11658566 7.25390625 5.67578125 C7.94226563 6.41183594 8.630625 7.14789063 9.33984375 7.90625 C11.40267661 11.36699244 11.29116943 13.50449731 10.87890625 17.48828125 C4.29133813 26.4179593 -7.23426561 32.52442057 -16.43359375 38.48828125 C-19.26579786 40.33822739 -22.09443655 42.19356112 -24.921875 44.05078125 C-25.62010376 44.50843369 -26.31833252 44.96608612 -27.03771973 45.43760681 C-31.41467381 48.32019802 -35.70809289 51.29418967 -39.953125 54.3671875 C-48.62779646 60.6432969 -57.57063878 66.51473023 -66.49609375 72.42578125 C-94.39739803 87.85112691 -94.39739803 87.85112691 -114.12109375 110.48828125 C-117.05491372 112.43768481 -119.52747571 112.72280762 -122.99609375 112.86328125 C-127.85434703 113.24417981 -130.37360112 114.43111621 -134.12109375 117.48828125 C-134.12109375 115.50828125 -134.12109375 113.52828125 -134.12109375 111.48828125 C-135.14203125 111.06160156 -136.16296875 110.63492188 -137.21484375 110.1953125 C-155.6727624 102.32056743 -173.26245151 92.67087757 -190.10791016 81.78027344 C-192.31329655 80.36493208 -194.53378214 78.97569466 -196.7578125 77.58984375 C-259.91166547 38.18637551 -259.91166547 38.18637551 -267.05859375 14.36328125 C-267.15362804 9.99170408 -265.37988503 7.16666962 -262.80859375 3.73828125 C-259.14012913 1.02090005 -255.82077745 0.48828125 -251.30859375 0.48828125 C-242.55641759 1.9270394 -235.84290723 9.35698819 -229.9375 15.44921875 C-229.19708969 16.19861725 -228.45667938 16.94801575 -227.6938324 17.72012329 C-225.34968306 20.0940224 -223.01578641 22.47763898 -220.68359375 24.86328125 C-207.57124416 38.42175371 -207.57124416 38.42175371 -193.12109375 50.48828125 C-191.65542026 51.64801713 -190.19315572 52.81207458 -188.734375 53.98046875 C-175.52263845 64.40839563 -161.86762719 73.63129319 -147.37158203 82.16357422 C-144.73236703 83.71709782 -142.09662385 85.27643497 -139.4609375 86.8359375 C-134.79950209 89.59331508 -130.13574 92.34671638 -125.47021484 95.09716797 C-123.78402645 96.09570273 -122.12113492 97.13397844 -120.47485352 98.19702148 C-118.19506479 99.78117656 -118.19506479 99.78117656 -115.6875 98.96875 C-112.57600124 97.17383671 -109.82732823 95.07192597 -107.05859375 92.80078125 C-100.88301154 87.83695026 -94.59317837 83.04319297 -88.24609375 78.30078125 C-87.34753662 77.62893799 -86.44897949 76.95709473 -85.52319336 76.26489258 C-83.39014621 74.67136022 -81.25617127 73.07909166 -79.12109375 71.48828125 C-79.33765625 70.49248047 -79.33765625 70.49248047 -79.55859375 69.4765625 C-79.74421875 68.59355469 -79.92984375 67.71054688 -80.12109375 66.80078125 C-80.30671875 65.93066406 -80.49234375 65.06054688 -80.68359375 64.1640625 C-81.11691345 61.51384826 -81.33582369 59.16573951 -81.12109375 56.48828125 C-79.1640625 54.3046875 -79.1640625 54.3046875 -76.30859375 52.05078125 C-75.78233398 51.63103027 -75.25607422 51.2112793 -74.71386719 50.77880859 C-68.24980387 45.68418807 -61.57554399 40.8516115 -54.92578125 36.00390625 C-51.24172189 33.31684821 -47.58823649 30.59338734 -43.95166016 27.8425293 C-35.81394228 21.68691973 -27.56757256 15.70217855 -19.16845703 9.90771484 C-17.80960937 8.965628 -16.45631974 8.01547062 -15.10888672 7.05712891 C-13.23030446 5.72223596 -11.33528194 4.41496198 -9.43359375 3.11328125 C-7.81904297 1.98792969 -7.81904297 1.98792969 -6.171875 0.83984375 C-3.12109375 -0.51171875 -3.12109375 -0.51171875 0 0 Z M0.87890625 6.48828125 C1.20890625 7.47828125 1.53890625 8.46828125 1.87890625 9.48828125 C1.87890625 8.49828125 1.87890625 7.50828125 1.87890625 6.48828125 C1.54890625 6.48828125 1.21890625 6.48828125 0.87890625 6.48828125 Z M-253.12109375 14.48828125 C-253.12109375 16.13828125 -253.12109375 17.78828125 -253.12109375 19.48828125 C-252.13109375 19.81828125 -251.14109375 20.14828125 -250.12109375 20.48828125 C-249.13109375 19.82828125 -248.14109375 19.16828125 -247.12109375 18.48828125 C-247.45109375 17.16828125 -247.78109375 15.84828125 -248.12109375 14.48828125 C-249.77109375 14.48828125 -251.42109375 14.48828125 -253.12109375 14.48828125 Z M-71.24609375 60.48828125 C-71.97054687 60.85953125 -72.695 61.23078125 -73.44140625 61.61328125 C-74.27285156 62.04640625 -74.27285156 62.04640625 -75.12109375 62.48828125 C-74.79109375 63.47828125 -74.46109375 64.46828125 -74.12109375 65.48828125 C-73.00734375 64.89015625 -71.89359375 64.29203125 -70.74609375 63.67578125 C-70.11960938 63.33933594 -69.493125 63.00289062 -68.84765625 62.65625 C-66.8160701 61.44064632 -66.8160701 61.44064632 -65.12109375 58.48828125 C-67.64584837 58.48828125 -69.01012309 59.33423188 -71.24609375 60.48828125 Z " fill="#BEAE7C" transform="translate(277.12109375,129.51171875)"/>
<path d="M0 0 C1.19625 -0.01675781 2.3925 -0.03351563 3.625 -0.05078125 C7.24778372 0.33917116 9.11499277 1.13283461 12 3.3125 C13.60725635 6.52701269 13.05748185 9.74862536 13 13.3125 C8 10.3125 8 10.3125 5.84375 8.78125 C2.14591639 6.87137989 -1.21119117 6.52450193 -5.3125 6.125 C-6.05306641 6.04314453 -6.79363281 5.96128906 -7.55664062 5.87695312 C-9.36994923 5.67807412 -11.18484969 5.49380173 -13 5.3125 C-12 2.3125 -12 2.3125 -9.875 1.14453125 C-6.48212996 0.16262729 -3.53101664 0.01141492 0 0 Z " fill="#BEAE7C" transform="translate(171,113.6875)"/>
<path d="" fill="#BEAE7D" transform="translate(0,0)"/>
</svg>
